<svg xmlns="http://www.w3.org/2000/svg" xmlns:xlink="http://www.w3.org/1999/xlink" width="62" height="62" viewBox="0 0 62 62">
    <defs>
        <path id="a" d="M0 14.839h38.978V0H0z"/>
    </defs>
    <g fill="none" fill-rule="evenodd">
        <circle cx="31" cy="31" r="30.5" fill="#FFF" stroke="#E5E5E5"/>
        <g transform="translate(11.5 23)">
            <path fill="#53524A" d="M38.43.53h-.928v7.98h1.435V1.032A.518.518 0 0 0 38.43.53M13.796 8.94c-.96 0-1.582-.572-1.582-1.458 0-.755.646-1.277 1.007-1.51l1.918 2.397c-.379.39-.809.572-1.343.572m-.033-6.802h.013c.529 0 1.05.274 1.007.967-.038.596-.45.958-1.145 1.417-.37-.477-.745-.863-.745-1.353 0-.512.224-.935.87-1.03m4.145 4.304h-1.365c-.128.346-.285.67-.471.97L14.538 5.46c1.06-.618 1.56-1.495 1.56-2.483 0-1.158-1.041-2-2.253-2-1.557 0-2.367 1.187-2.267 2.297.05.551.4 1.155.873 1.79-1.091.656-1.562 1.52-1.562 2.573 0 1.243.85 2.58 2.72 2.58.877 0 1.653-.292 2.311-.868l.643.727h1.759l-1.397-1.678c.433-.563.751-1.193.983-1.954"/>
            <mask id="b" fill="#fff">
                <use xlink:href="#a"/>
            </mask>
            <path fill="#53524A" d="M32.423 6.082h1.942V2.268h-1.942v3.814zm3.37-3.814h1.102V1.183H29.93v1.085h1.09v3.814h-1.09v1.156h6.965V6.082h-1.102V2.268z" mask="url(#b)"/>
            <path fill="#E21837" d="M35.987 8.855a2.993 2.993 0 1 0 0 5.985 2.993 2.993 0 0 0 0-5.985" mask="url(#b)"/>
            <path fill="#53524A" d="M24.78 1.122H23.557c-.566 1.699-2.595 3.13-3.978 3.835l.666 1.229c1.122-.552 2.932-1.808 3.924-3.275.99 1.467 2.8 2.723 3.923 3.275l.666-1.229c-1.383-.704-3.412-2.136-3.978-3.835M2.75 13.509H7.4v-1.654H2.75v1.654zm4.91-2.83v-.002H1.387v2.355c0 1.247.39 1.655 1.488 1.655h5.892V10.68l-1.105-.001zM5.308 8.32c.286 0 .519.233.519.519v.128h4.325v1.178H0V8.967h4.325V8.32h.983zM26.667 8.967V6.904a.52.52 0 0 0-.52-.52l-.007.001h-.949v2.582h-1.923V6.904a.52.52 0 0 0-.527-.519h-.95v2.582h-2.698v1.178h10.151V8.967h-2.577z" mask="url(#b)"/>
            <path fill="#E21837" d="M5.076 6.704a1.622 1.622 0 1 1 0-3.245 1.622 1.622 0 0 1 0 3.245m0-4.584a2.992 2.992 0 1 0 0 5.984 2.992 2.992 0 0 0 0-5.984" mask="url(#b)"/>
            <path fill="#53524A" d="M5.827.737V.518A.519.519 0 0 0 5.317 0h-.992v.737H1.599v1.166h6.953V.737H5.827z" mask="url(#b)"/>
        </g>
    </g>
</svg>
