<svg xmlns="http://www.w3.org/2000/svg" xmlns:xlink="http://www.w3.org/1999/xlink" width="62" height="62" viewBox="0 0 62 62">
    <defs>
        <path id="a" d="M.504.325h27.173v27.168H.504z"/>
    </defs>
    <g fill="none" fill-rule="evenodd">
        <circle cx="31" cy="31" r="30.5" fill="#FFF" stroke="#E5E5E5"/>
        <path fill="#EE463A" d="M37.849 35.569c-2.217-1.506-3.695-1.993-3.695-3.051 0-.54.436-1.266 2.05-1.266 1.413 0 2.9.867 3.73 1.804l.045.02.064-.066v-3.573c-.786-.347-2.413-.986-4.515-.986-4.51 0-6.358 2.602-6.358 4.539 0 1.687 1.004 2.712 2.222 3.59 1.948 1.381 4.454 2.218 4.454 3.84 0 .824-.828 2.236-3.527 2.236-3.143 0-7.127-1.799-9.138-6.084.714 6.849 5.98 9.82 9.842 9.82 5.372 0 7.826-3.267 7.826-5.972 0-1.893-.9-3.425-3-4.851"/>
        <path fill="#EE463A" d="M23.27 22.794c-1.62 0-2.916.902-3.644 1.94V23.22h-5.558l-.068.066.016.038c.714.828.99 1.14.99 3.158v11.683h4.62v-9.642c0-1.947 1.013-2.406 1.734-2.406.722 0 1.727.46 1.727 2.406v4.04c0 3.287 2.067 5.452 4.625 6.658V28.564c0-3.893-1.6-5.77-4.443-5.77"/>
        <g transform="translate(19.774 14.316)">
            <mask id="b" fill="#fff">
                <use xlink:href="#a"/>
            </mask>
            <path fill="#EE463A" d="M22.47 27.493a15.512 15.512 0 0 0 5.207-11.609c0-8.594-6.968-15.56-15.562-15.56a15.52 15.52 0 0 0-11.61 5.21 15.506 15.506 0 0 1 10.35-3.943c8.594 0 15.556 6.967 15.556 15.556 0 3.972-1.491 7.598-3.942 10.346" mask="url(#b)"/>
        </g>
    </g>
</svg>
