<svg xmlns="http://www.w3.org/2000/svg" width="62" height="62" viewBox="0 0 62 62">
    <g fill="none" fill-rule="evenodd">
        <circle cx="31" cy="31" r="30.5" fill="#FFF" stroke="#E5E5E5"/>
        <g fill="#DC0074">
            <path d="M36.73 40.761c-.284.72-4.102-.116-8.526-1.871-4.423-1.757-7.778-3.76-7.492-4.48.286-.72 4.102.117 8.529 1.873 4.424 1.755 7.776 3.76 7.489 4.478m-6.134-7.9c-9.03-3.58-17.064-4.68-17.944-2.455-.883 2.221 5.724 6.925 14.749 10.506 9.032 3.58 17.065 4.679 17.947 2.458.881-2.226-5.723-6.929-14.752-10.509M35.024 16.359L24.258 29.876a68.489 68.489 0 0 1 6.626 2.25 68.278 68.278 0 0 1 6.372 2.903l1.42-17.214c.186-2.197-2.286-3.175-3.652-1.456"/>
        </g>
    </g>
</svg>
