<svg xmlns="http://www.w3.org/2000/svg" xmlns:xlink="http://www.w3.org/1999/xlink" width="62" height="62" viewBox="0 0 62 62">
    <defs>
        <path id="a" d="M.016.07h8.436v9.942H.016V.069z"/>
        <path id="c" d="M0 22.167h46.07V.204H0z"/>
    </defs>
    <g fill="none" fill-rule="evenodd">
        <circle cx="31" cy="31" r="30.5" fill="#FFF" stroke="#E5E5E5"/>
        <g transform="translate(8.5 18.5)">
            <path fill="#1D1D1B" d="M3.115 9.523c-1.8 0-3.115 1.434-3.115 3.25 0 1.815 1.315 3.205 3.115 3.205 1.002 0 1.951-.452 2.576-1.239-.068-.064-.24-.437-.822-.437-.546 0-.67.552-1.754.552-1.059 0-1.938-.907-1.938-2.081 0-1.177.88-2.124 1.938-2.124.968 0 1.201.578 1.698.578.498 0 .786-.4.854-.463a3.235 3.235 0 0 0-2.552-1.24M9.471 9.685H6.94c-.427 0-.728.259-.728.67v.376h1.128s.045 3.843-.006 4.258v.001c-.015.317-.152 1.075-.877 1.419-.596.28-.601.55-.632.967.008.03.021.048.038.049h.002l.008-.002c.022-.006.591-.147.674-.181l-.002-.003c.537-.166 1.355-.536 1.745-1.3 0 0 .367-.568.36-1.783v-3.425H8.7c.428 0 .77-.258.77-.67v-.376"/>
            <path fill="#E88501" d="M22.537 7.69c-2.643-1.046-5.312-.937-5.993.302l.006-.007c-.682 1.241.315 4.172 2.194 6.603 1.88 2.43 4.532 2.35 5.998-.309l-.015.015c1.464-2.656.45-5.558-2.19-6.605"/>
            <path fill="#DD2537" d="M17.505 17.03c-.373-2.832-1.762-5.131-3.17-5.131l.01.004c-1.409 0-3.468 2.298-4.667 5.132-1.2 2.835.157 5.132 3.175 5.132l-.02-.002c3.016 0 5.043-2.299 4.672-5.134"/>
            <g transform="translate(7.09 .135)">
                <mask id="b" fill="#fff">
                    <use xlink:href="#a"/>
                </mask>
                <path fill="#007BC1" d="M2.011 8.404c2.344 1.613 4.97 2.105 5.91 1.05l-.008.004c.938-1.055.614-4.134-.681-6.926C5.938-.26 3.332-.775 1.319 1.486l.015-.011C-.681 3.737-.332 6.793 2.01 8.404" mask="url(#b)"/>
            </g>
            <path fill="#1D1D1B" d="M28.882 11.764c0-.828.599-1.496 1.335-1.496.738 0 1.335.668 1.335 1.496 0 .827-.597 1.499-1.335 1.499-.736 0-1.335-.672-1.335-1.499zm4.436 2.84h-2.62v-.796c1.068-.197 1.87-1.037 1.87-2.043 0-1.15-1.052-2.083-2.351-2.083s-2.35.932-2.35 2.083c0 1.006.802 1.847 1.87 2.043v.794h-2.301c-.065 0-.32.023-.32.324v.3H33c.066 0 .32-.023.32-.324v-.299zM36.665 10.453c.012-.378.206-.586.55-.586h.41v.519c0 .373.033 1.665 2.503 2.455l-.217.263s-.202.277-.554.165c-.549-.182-1.636-.64-2.211-1.537-.575.897-1.662 1.355-2.212 1.537-.352.112-.553-.165-.553-.165l-.219-.263c2.33-.745 2.49-1.942 2.503-2.388M44.113 15.81c-.495 0-.896-.485-.896-1.084 0-.6.401-1.084.896-1.084s.895.484.895 1.084c0 .599-.4 1.084-.895 1.084m-.001-2.746c-1.024 0-1.854.744-1.854 1.662 0 .918.83 1.663 1.854 1.663 1.026 0 1.855-.745 1.855-1.663s-.829-1.662-1.855-1.662"/>
            <path fill="#1D1D1B" d="M38.604 14.603v-1.287h-.407c-.356 0-.552.222-.552.624v.663h-.999v-1.287h-.406c-.356 0-.552.222-.552.624v.663h-1.325c-.065 0-.319.022-.319.323v.3h5.883c.066-.002.32-.023.32-.325v-.298h-1.643z"/>
            <mask id="d" fill="#fff">
                <use xlink:href="#c"/>
            </mask>
            <path fill="#1D1D1B" d="M42.16 12.302h.964v-1.755h-.964v1.755zm3.908-2.63h-.405c-.356 0-.552.222-.552.624v1.785c-.336.08-.702.135-1.03.169v-1.703h.272c.066 0 .32-.023.32-.324v-.299H40.93c-.066.001-.32.024-.32.325v.298h.592v1.756h-.375c-.066 0-.32.022-.32.324v.299h2.121c1.216 0 1.964-.136 2.483-.297v.655h.405c.356 0 .552-.222.553-.624V9.673z" mask="url(#d)"/>
        </g>
    </g>
</svg>
