<?xml version="1.0" encoding="utf-8"?>
<!-- Generator: Adobe Illustrator 24.0.1, SVG Export Plug-In . SVG Version: 6.00 Build 0)  -->
<svg version="1.1" id="Layer_1" xmlns="http://www.w3.org/2000/svg" xmlns:xlink="http://www.w3.org/1999/xlink" x="0px" y="0px"
	 viewBox="0 0 1000 1000" style="enable-background:new 0 0 1000 1000;" xml:space="preserve">
<style type="text/css">
	.st0{fill-rule:evenodd;clip-rule:evenodd;fill:#FFFFFF;fill-opacity:0.9;stroke:#000000;stroke-opacity:0.2;}
	.st1{fill:#666666;}
	.st2{fill-rule:evenodd;clip-rule:evenodd;fill:#FFFFFF;stroke:#FFFFFF;stroke-width:0.4;}
	.st3{fill-rule:evenodd;clip-rule:evenodd;fill:#FFFFFF;stroke:#000000;stroke-opacity:0.2;}
	.st4{fill:#AAAAAA;}
	
		.st5{fill-rule:evenodd;clip-rule:evenodd;fill:#00C01E;stroke:#00C01E;stroke-width:1.6;stroke-linecap:square;stroke-linejoin:round;}
	.st6{fill-rule:evenodd;clip-rule:evenodd;fill:#00C01E;}
	.st7{fill-rule:evenodd;clip-rule:evenodd;fill:#A58B12;}
	.st8{fill-rule:evenodd;clip-rule:evenodd;fill:#EF5E49;stroke:#000000;stroke-opacity:5.000000e-02;}
	.st9{fill-rule:evenodd;clip-rule:evenodd;fill:#231F20;}
	.st10{fill-rule:evenodd;clip-rule:evenodd;fill:#FCD10C;}
	.st11{fill-rule:evenodd;clip-rule:evenodd;fill:#FEFEFE;}
	.st12{fill-rule:evenodd;clip-rule:evenodd;fill-opacity:0.15;stroke:#000000;stroke-opacity:2.000000e-02;}
	.st13{fill-rule:evenodd;clip-rule:evenodd;fill:#FFFFFF;}
	.st14{fill-rule:evenodd;clip-rule:evenodd;fill:#BC9A6E;}
	.st15{fill-rule:evenodd;clip-rule:evenodd;fill:#FFD200;}
	.st16{fill-rule:evenodd;clip-rule:evenodd;fill:#EDBF8B;}
	.st17{fill:#222222;}
	.st18{fill:#FFFFFF;}
	.st19{fill-rule:evenodd;clip-rule:evenodd;fill:#41D241;stroke:#000000;stroke-opacity:5.000000e-02;}
	.st20{fill-rule:evenodd;clip-rule:evenodd;fill:#41D241;stroke:#000000;stroke-opacity:3.000000e-02;}
	.st21{filter:url(#filter-2);}
	.st22{fill-rule:evenodd;clip-rule:evenodd;}
	.st23{fill-rule:evenodd;clip-rule:evenodd;fill:#FFFFFF;stroke:#FFFFFF;}
	.st24{filter:url(#filter-4);}
	.st25{opacity:0.5;fill-rule:evenodd;clip-rule:evenodd;fill-opacity:0.15;stroke:#FFFFFF;enable-background:new    ;}
	.st26{fill-rule:evenodd;clip-rule:evenodd;fill:url(#Fill-1_17_);}
	.st27{fill-rule:evenodd;clip-rule:evenodd;fill:#00C6FF;stroke:#000000;stroke-opacity:3.000000e-02;}
	.st28{fill:#5E636D;}
	.st29{fill-rule:evenodd;clip-rule:evenodd;fill:#FFFFFF;stroke:#DCDCDC;stroke-width:0.5;}
	.st30{fill:#CCCCCC;}
	.st31{filter:url(#Adobe_OpacityMaskFilter);}
	.st32{mask:url(#mask-7_1_);fill-rule:evenodd;clip-rule:evenodd;fill:#FEFEFE;}
	.st33{filter:url(#Adobe_OpacityMaskFilter_1_);}
	.st34{mask:url(#mask-9_1_);fill-rule:evenodd;clip-rule:evenodd;fill:#FEFEFE;}
	.st35{filter:url(#Adobe_OpacityMaskFilter_2_);}
	.st36{mask:url(#mask-11_1_);fill-rule:evenodd;clip-rule:evenodd;fill:#FEFEFE;}
	.st37{filter:url(#Adobe_OpacityMaskFilter_3_);}
	.st38{mask:url(#mask-13_1_);fill-rule:evenodd;clip-rule:evenodd;fill:#FFFFFF;}
	.st39{filter:url(#Adobe_OpacityMaskFilter_4_);}
	.st40{mask:url(#mask-15_1_);fill-rule:evenodd;clip-rule:evenodd;fill:#FFFFFF;}
	.st41{filter:url(#Adobe_OpacityMaskFilter_5_);}
	.st42{mask:url(#mask-15_2_);fill-rule:evenodd;clip-rule:evenodd;fill:#FFFFFF;}
	.st43{filter:url(#Adobe_OpacityMaskFilter_6_);}
	.st44{mask:url(#mask-15_3_);fill-rule:evenodd;clip-rule:evenodd;fill:#FFFFFF;}
	.st45{fill-rule:evenodd;clip-rule:evenodd;fill:#E0454A;}
	.st46{filter:url(#Adobe_OpacityMaskFilter_7_);}
	.st47{mask:url(#mask-17_1_);fill-rule:evenodd;clip-rule:evenodd;fill:#E0454A;}
	.st48{fill-rule:evenodd;clip-rule:evenodd;fill:#00994E;}
	.st49{fill-rule:evenodd;clip-rule:evenodd;fill:#81C348;}
	.st50{fill-rule:evenodd;clip-rule:evenodd;fill:#3E3A39;}
	.st51{filter:url(#Adobe_OpacityMaskFilter_8_);}
	.st52{mask:url(#mask-19_1_);fill-rule:evenodd;clip-rule:evenodd;fill:#3E3A39;}
	.st53{filter:url(#Adobe_OpacityMaskFilter_9_);}
	.st54{mask:url(#mask-21_1_);fill-rule:evenodd;clip-rule:evenodd;fill:#3E3A39;}
	.st55{filter:url(#Adobe_OpacityMaskFilter_10_);}
	.st56{mask:url(#mask-21_2_);fill-rule:evenodd;clip-rule:evenodd;fill:#3E3A39;}
	.st57{filter:url(#Adobe_OpacityMaskFilter_11_);}
	.st58{mask:url(#mask-21_3_);fill-rule:evenodd;clip-rule:evenodd;fill:#3E3A39;}
	.st59{filter:url(#Adobe_OpacityMaskFilter_12_);}
	.st60{mask:url(#mask-23_1_);fill-rule:evenodd;clip-rule:evenodd;fill:#FEFEFE;}
	.st61{filter:url(#Adobe_OpacityMaskFilter_13_);}
	.st62{mask:url(#mask-25_1_);fill-rule:evenodd;clip-rule:evenodd;fill:#FFFFFF;}
	.st63{filter:url(#Adobe_OpacityMaskFilter_14_);}
	.st64{mask:url(#mask-27_1_);fill-rule:evenodd;clip-rule:evenodd;fill:#FFFFFF;}
	.st65{filter:url(#Adobe_OpacityMaskFilter_15_);}
	.st66{mask:url(#mask-27_2_);fill-rule:evenodd;clip-rule:evenodd;fill:#FFFFFF;}
	.st67{filter:url(#Adobe_OpacityMaskFilter_16_);}
	.st68{mask:url(#mask-27_3_);fill-rule:evenodd;clip-rule:evenodd;fill:#FFFFFF;}
	.st69{opacity:0.4;fill-rule:evenodd;clip-rule:evenodd;stroke:#FFFFFF;enable-background:new    ;}
	.st70{fill-rule:evenodd;clip-rule:evenodd;fill:#FFFFFF;fill-opacity:0;stroke:#FFFFFF;stroke-width:2;}
	.st71{fill-rule:evenodd;clip-rule:evenodd;fill:#FFFFFF;fill-opacity:0.2;stroke:#FFFFFF;}
	.st72{fill-rule:evenodd;clip-rule:evenodd;fill:#067DFD;stroke:#000000;stroke-opacity:5.000000e-02;}
	.st73{fill-rule:evenodd;clip-rule:evenodd;fill:#FFFFFF;stroke:#000000;stroke-opacity:5.000000e-02;}
	.st74{fill:#067DFD;}
	.st75{fill-rule:evenodd;clip-rule:evenodd;fill:#277AFF;fill-opacity:0.9;stroke:#000000;stroke-opacity:0.2;}
	.st76{fill:none;stroke:#FFFFFF;stroke-width:1.5;stroke-linecap:round;stroke-linejoin:round;}
</style>
<filter  filterUnits="objectBoundingBox" height="130.8%" id="filter-4" width="155.6%" x="-28.6%" y="-11.5%">
	<feMorphology  in="SourceAlpha" operator="dilate" radius="1" result="shadowSpreadOuter1"></feMorphology>
	<feOffset  dx="0" dy="2" in="shadowSpreadOuter1" result="shadowOffsetOuter1"></feOffset>
	<feGaussianBlur  in="shadowOffsetOuter1" result="shadowBlurOuter1" stdDeviation="2"></feGaussianBlur>
	<feComposite  in="shadowBlurOuter1" in2="SourceAlpha" operator="out" result="shadowBlurOuter1"></feComposite>
	<feColorMatrix  in="shadowBlurOuter1" type="matrix" values="0 0 0 0 0   0 0 0 0 0   0 0 0 0 0  0 0 0 0.15 0"></feColorMatrix>
</filter>
<filter  filterUnits="objectBoundingBox" height="130.8%" id="filter-2" width="155.6%" x="-28.6%" y="-11.5%">
	<feMorphology  in="SourceAlpha" operator="dilate" radius="1" result="shadowSpreadOuter1"></feMorphology>
	<feOffset  dx="0" dy="2" in="shadowSpreadOuter1" result="shadowOffsetOuter1"></feOffset>
	<feGaussianBlur  in="shadowOffsetOuter1" result="shadowBlurOuter1" stdDeviation="2"></feGaussianBlur>
	<feComposite  in="shadowBlurOuter1" in2="SourceAlpha" operator="out" result="shadowBlurOuter1"></feComposite>
	<feColorMatrix  in="shadowBlurOuter1" type="matrix" values="0 0 0 0 0   0 0 0 0 0   0 0 0 0 0  0 0 0 0.15 0"></feColorMatrix>
</filter>
<title>sprite__homemain</title>
<desc>Created with Sketch.</desc>
<path id="Rectangle" class="st0" d="M189.5,384c0,6.5-2.6,12.4-6.9,16.6c-4.3,4.3-10.1,6.9-16.6,6.9s-12.4-2.6-16.6-6.9
	c-4.3-4.3-6.9-10.1-6.9-16.6s2.6-12.4,6.9-16.6c4.3-4.3,10.1-6.9,16.6-6.9s12.4,2.6,16.6,6.9C186.9,371.6,189.5,377.5,189.5,384z"/>
<path id="Path-3" class="st1" d="M168.3,375.4c-0.3-0.3-0.7-0.3-1,0l-0.1,0.1l-7,7.8c-0.2,0.3-0.3,0.6-0.1,0.9l0.1,0.1l7,7.8
	c0.3,0.3,0.8,0.3,1.1,0.1c0.3-0.3,0.3-0.7,0.1-1l-0.1-0.1l-6.5-7.3l6.5-7.3C168.6,376.2,168.6,375.8,168.3,375.4L168.3,375.4z"/>
<path id="Rectangle_1_" class="st0" d="M241.5,384c0,6.5-2.6,12.4-6.9,16.6c-4.3,4.3-10.1,6.9-16.6,6.9s-12.4-2.6-16.6-6.9
	c-4.3-4.3-6.9-10.1-6.9-16.6s2.6-12.4,6.9-16.6c4.3-4.3,10.1-6.9,16.6-6.9s12.4,2.6,16.6,6.9C238.9,371.6,241.5,377.5,241.5,384z"/>
<path id="Path-3_1_" class="st1" d="M215.6,375.4c0.3-0.3,0.7-0.3,1,0l0.1,0.1l7,7.8c0.2,0.3,0.3,0.6,0.1,0.9l-0.1,0.1l-7,7.8
	c-0.3,0.3-0.8,0.3-1.1,0.1c-0.3-0.3-0.3-0.7-0.1-1l0.1-0.1l6.5-7.3l-6.5-7.3C215.3,376.2,215.3,375.8,215.6,375.4L215.6,375.4z"/>
<g id="Group-12_2_">
	<path id="Rectangle_2_" class="st0" d="M41.5,21c0,5.7-2.3,10.8-6,14.5s-8.8,6-14.5,6s-10.8-2.3-14.5-6s-6-8.8-6-14.5
		s2.3-10.8,6-14.5s8.8-6,14.5-6s10.8,2.3,14.5,6S41.5,15.3,41.5,21z"/>
	<path id="Path-3_2_" class="st1" d="M23.1,13.5c-0.3-0.3-0.7-0.3-1,0L22,13.5l-6.1,6.8c-0.2,0.3-0.3,0.6-0.1,0.9l0.1,0.1l6.1,6.8
		c0.3,0.3,0.8,0.3,1.1,0.1c0.3-0.3,0.3-0.7,0.1-1l-0.1-0.1l-5.6-6.3l5.6-6.3C23.4,14.3,23.4,13.8,23.1,13.5L23.1,13.5z"/>
</g>
<g id="Group-12_3_" transform="translate(42.000000, 0.000000)">
	<path id="Rectangle_3_" class="st0" d="M41.5,21c0,5.7-2.3,10.8-6,14.5s-8.8,6-14.5,6s-10.8-2.3-14.5-6s-6-8.8-6-14.5
		s2.3-10.8,6-14.5s8.8-6,14.5-6s10.8,2.3,14.5,6S41.5,15.3,41.5,21z"/>
	<path id="Path-3_3_" class="st1" d="M18.8,13.5c0.3-0.3,0.7-0.3,1,0l0.1,0.1l6.1,6.8c0.2,0.3,0.3,0.6,0.1,0.9L26,21.3l-6.1,6.8
		c-0.3,0.3-0.8,0.3-1.1,0.1c-0.3-0.3-0.3-0.7-0.1-1l0.1-0.1l5.6-6.3l-5.6-6.3C18.5,14.3,18.5,13.8,18.8,13.5L18.8,13.5z"/>
</g>
<g id="Group-20" transform="translate(88.000000, 0.000000)">
	<path id="Fill-1" class="st2" d="M22.3,0.7c0.3,0.3,0.3,0.8,0,1L2.1,22l0,0l20.2,20.2c0.3,0.3,0.3,0.8,0,1c-0.3,0.3-0.8,0.3-1,0
		c0,0,0,0,0,0L0.6,22.6c-0.4-0.4-0.4-0.9,0-1.3L21.2,0.7C21.5,0.4,22,0.4,22.3,0.7C22.3,0.7,22.3,0.7,22.3,0.7z"/>
</g>
<g id="Group-20_1_" transform="translate(126.500000, 22.000000) scale(-1, 1) translate(-126.500000, -22.000000) translate(115.000000, 0.000000)">
	<path id="Fill-1_1_" class="st2" d="M22.3,0.7c0.3,0.3,0.3,0.8,0,1L2.1,22l0,0l20.2,20.2c0.3,0.3,0.3,0.8,0,1c-0.3,0.3-0.8,0.3-1,0
		c0,0,0,0,0,0L0.6,22.6c-0.4-0.4-0.4-0.9,0-1.3L21.2,0.7C21.5,0.4,22,0.4,22.3,0.7C22.3,0.7,22.3,0.7,22.3,0.7z"/>
</g>
<g id="pc_x2F_gall_x5F_heart_x5F_20" transform="translate(246.000000, 0.000000)">
	<circle id="Oval" class="st3" cx="21" cy="371" r="20.5"/>
	<path id="Combined-Shape" class="st4" d="M24.9,363.2c-1.5,0.1-2.9,0.8-3.8,1.9l0,0.1l0-0.1c-1-1.2-2.5-1.9-4.1-1.9
		c-3,0-5.4,2.4-5.4,5.4l0,0.2l0,0.1l0,0c0,0,0,0,0,0l0,0.1c0,0.1,0,0.1,0,0.2c0,0.2,0.1,0.4,0.1,0.6c0.2,0.6,0.5,1.4,1,2.2
		c1.4,2.3,3.7,4.9,7.3,7.7l0.4,0.4c0.3,0.3,0.8,0.3,1.1,0l0.5-0.5c3.6-2.9,6-5.5,7.3-7.8c0.8-1.4,1.1-2.5,1.1-3.2l0-0.2
		c0-2.9-2.4-5.4-5.4-5.4L24.9,363.2z M25.1,364.8c2,0,3.7,1.6,3.8,3.6l0,0.2l0,0.1c0,0.1,0,0.3-0.1,0.5c-0.1,0.5-0.4,1.2-0.8,1.9
		l-0.1,0.2c-1.2,2-3.3,4.3-6.5,6.9l-0.4,0.3l0.1,0.1c-3.5-2.8-5.8-5.3-7-7.4c-0.4-0.7-0.7-1.3-0.9-1.8l-0.1-0.2l0-0.1l0,0
		c0,0,0,0,0,0l0-0.1l0-0.2l0-0.2c0-2.1,1.7-3.8,3.8-3.8c1.5,0,2.8,0.8,3.4,2.1c0.3,0.6,1.1,0.6,1.4,0
		C22.3,365.7,23.7,364.8,25.1,364.8z"/>
</g>
<g id="pc_x2F_gall_x5F_heart_x5F_20_1_" transform="translate(292.000000, 0.000000)">
	<circle id="Oval_1_" class="st3" cx="21" cy="371" r="20.5"/>
	<path id="Combined-Shape_1_" class="st5" d="M20.5,379.2l0.5,0.5l0.5-0.5c8.4-6.7,8.2-10.1,8.2-10.1c0-0.2,0-0.3,0-0.5
		c0-2.5-2-4.6-4.6-4.6c-1.8,0-3.4,1.1-4.1,2.6c-0.7-1.5-2.3-2.6-4.1-2.6c-2.5,0-4.6,2.1-4.6,4.6c0,0.2,0,0.3,0,0.5
		C12.3,369.1,12.1,372.6,20.5,379.2z"/>
</g>
<path id="Combined-Shape_2_" class="st6" d="M11.7,123.6l-3.5,3.3c-0.3,0.3-0.3,0.7,0,0.9c0.3,0.3,0.7,0.3,1,0l4.6-4.4
	c0.3-0.2,0.3-0.7,0-0.9l-4.6-4.4c-0.3-0.3-0.7-0.3-1,0c-0.3,0.2-0.3,0.7,0,0.9l3.5,3.3l-11.7,0c0.3-4.7,4.2-8.4,9-8.4c5,0,9,4,9,9
	s-4,9-9,9c-4.8,0-8.7-3.7-9-8.4L11.7,123.6z"/>
<path id="Combined-Shape_3_" class="st7" d="M33.7,123.6l-3.5,3.3c-0.3,0.3-0.3,0.7,0,0.9c0.3,0.3,0.7,0.3,1,0l4.6-4.4
	c0.3-0.2,0.3-0.7,0-0.9l-4.6-4.4c-0.3-0.3-0.7-0.3-1,0c-0.3,0.2-0.3,0.7,0,0.9l3.5,3.3l-11.7,0c0.3-4.7,4.2-8.4,9-8.4c5,0,9,4,9,9
	s-4,9-9,9c-4.8,0-8.7-3.7-9-8.4L33.7,123.6z"/>
<circle id="Oval_4_" class="st8" cx="55" cy="125" r="10.5"/>
<g id="_x2D_g-Group-2">
	<path id="Fill-1_2_" class="st9" d="M243.1,124.9c-0.5-1.2-1.6-1.9-2.9-1.9c-0.1,0-0.2,0-0.3,0l-18.9,2.1c-0.7,0.1-1.4,0.4-1.9,0.9
		l-11.4,11.5l2.1-9h-88.4c-9.6,0-17.8,1.8-23.9,5.7c-2.3,1.5-4.3,3.3-6,5.4c0,0,0,0,0,0c-3.7,3.9-4.9,9.6-4.9,9.6l-1.8,7.5h5.2
		l-0.4,1.8l-0.5,2.2l-0.1,0.3l0,0.1c-0.2,1.3,0.6,3,2.5,3.8c0.8,0.3,1.8,0.5,3.1,0.5c0.1,0,0.1,0,0.2,0l106.9,0l0,0c0,0,0.1,0,0.1,0
		c0.6,0,1.1-0.2,1.6-0.4l31.7-18.8c0.9-0.6,1.5-1.5,1.5-2.6c0-1.1-0.5-2.1-1.4-2.7l-4.4-3l11.4-9.3
		C243.3,127.7,243.7,126.2,243.1,124.9"/>
	<path id="Fill-4" class="st10" d="M240.5,126c-0.1-0.2-0.2-0.3-0.4-0.2l-18.9,2.1c-0.1,0-0.2,0.1-0.2,0.1l-10.3,10.4
		c-0.1,0.1-0.1,0.2-0.1,0.3c0,0.1,0.1,0.2,0.2,0.3l7.9,6.1l-17.2,17c-0.1,0.1-0.2,0.4,0,0.5c0.1,0.1,0.2,0.2,0.3,0.2
		c0.1,0,0.1,0,0.2-0.1l31.7-18.8c0.1-0.1,0.2-0.2,0.2-0.3c0-0.1-0.1-0.3-0.2-0.3l-7.5-5l14.2-11.7
		C240.5,126.3,240.6,126.1,240.5,126"/>
	<path id="superdeal" class="st11" d="M202.4,147.5l-2.2,9.5h-28l-0.4,1.6h26.9c0.3,0,0.5,0.1,0.6,0.4c0.1,0.2,0.1,0.6,0.1,1
		c0,0.2,0,0.3-0.1,0.5l0,0l-0.1,0.3c-0.2,0.7-0.4,1.2-0.7,1.5c-0.2,0.2-0.5,0.4-0.7,0.4l0,0h0l-33.5,0h0l2.2-9.5h28l0.4-1.6h-28
		l1-4.1H202.4z M158.2,131.3c0.3,0,0.6,0.2,0.7,0.5c0.1,0.4,0.1,0.9,0,1.7l0,0l-0.2,0.7c-0.2,0.7-0.4,1.2-0.8,1.6
		c-0.3,0.3-0.5,0.4-0.9,0.4l0,0h-3.8l-5.2,21.9h3.8c0.3,0,0.6,0.2,0.7,0.5c0.1,0.4,0.1,1,0,1.8l0,0l-0.1,0.4
		c-0.2,0.8-0.5,1.4-0.8,1.7c-0.3,0.3-0.5,0.4-0.9,0.4l0,0h-27.3l1.1-4.8h5.1l5.2-21.9h-5.1l1.1-4.8H158.2z M168.7,131.3l-7.1,30.1
		c-0.1,0.5-0.5,0.8-1.2,1c-0.6,0.2-1.4,0.3-2.2,0.3c-0.1,0-0.1,0-0.2,0c0,0-0.1,0-0.1,0c-0.9,0-1.6-0.1-2.2-0.3
		c-0.6-0.2-0.8-0.6-0.7-1l0,0l0,0l3.2-13.5h-5.5l1.1-4.8h5.5l2.8-11.8H168.7z M126,149.2c0.3,0,0.6,0.2,0.7,0.5c0.2,0.4,0.1,1,0,1.9
		l0,0l0,0.2c-0.2,0.9-0.5,1.5-0.8,1.9c-0.3,0.3-0.5,0.4-0.9,0.4l0,0h-5.7l-1.7,7.3c-0.1,0.5-0.5,0.8-1.2,1c-0.6,0.2-1.4,0.3-2.2,0.3
		c-0.1,0-0.1,0-0.2,0c0,0-0.1,0-0.1,0c-0.9,0-1.6-0.1-2.2-0.3c-0.6-0.2-0.8-0.6-0.7-1c0,0,0,0,0,0l0,0l1.7-7.3h-12.1
		c0,0-1.7,7.4-1.7,7.4c-0.1,0.5-0.5,0.8-1.2,1c-0.5,0.2-1.1,0.3-1.7,0.3c-0.2,0-0.5,0-0.7,0c-0.2,0-0.3,0-0.5,0
		c-0.7,0-1.3-0.1-1.8-0.3c-0.6-0.2-0.8-0.6-0.7-1l0,0h0L94,154h-5.6l1.1-4.8H126z M146.8,136.1h-5.3l-5.2,21.9h5.3L146.8,136.1z
		 M128.1,131.3l-3.8,16.1h-6.5l2.4-10.4c-14.5,0-19.4,4.2-22.5,10.4l0,0h-7.1c0.8-1.7,1.7-3.4,2.6-4.7c1.7-2.3,3.8-4.4,6.4-6.1
		c5.1-3.3,11.4-5.3,21.6-5.3c0.4,0,4.9,0,6.4,0L128.1,131.3z M206.2,131.3c0,0-3.2,13.7-3.2,13.7c-0.1,0.5-0.5,0.8-1.2,1
		c-0.5,0.2-1.1,0.3-1.7,0.3c-0.1,0-0.3,0-0.4,0c-0.1,0-0.2,0-0.3,0c-0.1,0-0.1,0-0.2,0c-0.1,0-0.2,0-0.3,0c-0.7,0-1.3-0.1-1.8-0.3
		c-0.6-0.2-0.8-0.6-0.7-1l0,0h0l3.2-13.6H206.2z M195.8,131.3c0.3,0,0.6,0.2,0.7,0.5c0.2,0.4,0.1,1,0,1.9l0,0l0,0.2
		c-0.2,0.9-0.5,1.5-0.8,1.9c-0.3,0.3-0.5,0.4-0.9,0.4l0,0h-17.6l-1.2,5h17.6c0.3,0,0.6,0.2,0.7,0.5c0.2,0.4,0.1,1,0,1.9l0,0l0,0.2
		c-0.2,0.9-0.5,1.5-0.8,1.9c-0.3,0.3-0.5,0.4-0.9,0.4l0,0h-24.1l3.3-14.6H195.8z"/>
</g>
<path id="Rectangle_5_" class="st12" d="M287.5,136c0,5.4-2.2,10.3-5.7,13.8s-8.4,5.7-13.8,5.7s-10.3-2.2-13.8-5.7
	c-3.5-3.5-5.7-8.4-5.7-13.8c0-5.4,2.2-10.3,5.7-13.8c3.5-3.5,8.4-5.7,13.8-5.7s10.3,2.2,13.8,5.7S287.5,130.6,287.5,136z"/>
<path id="Rectangle_6_" class="st13" d="M264.5,129L264.5,129c0.6,0,1,0.4,1,1v12c0,0.6-0.4,1-1,1l0,0c-0.6,0-1-0.4-1-1v-12
	C263.5,129.4,263.9,129,264.5,129z"/>
<path id="Rectangle_7_" class="st13" d="M271.5,129L271.5,129c0.6,0,1,0.4,1,1v12c0,0.6-0.4,1-1,1l0,0c-0.6,0-1-0.4-1-1v-12
	C270.5,129.4,270.9,129,271.5,129z"/>
<path id="Rectangle_8_" class="st12" d="M325.8,149.8c-3.5,3.5-8.4,5.7-13.8,5.7h-19.5v-39H312c5.4,0,10.3,2.2,13.8,5.7
	c3.5,3.5,5.7,8.4,5.7,13.8C331.5,141.4,329.3,146.3,325.8,149.8z"/>
<path id="Rectangle_9_" class="st13" d="M310.5,129L310.5,129c0.6,0,1,0.4,1,1v12c0,0.6-0.4,1-1,1l0,0c-0.6,0-1-0.4-1-1v-12
	C309.5,129.4,309.9,129,310.5,129z"/>
<path id="Rectangle_10_" class="st13" d="M317.5,136L317.5,136c0,0.6-0.4,1-1,1h-12c-0.6,0-1-0.4-1-1l0,0c0-0.6,0.4-1,1-1h12
	C317.1,135,317.5,135.4,317.5,136z"/>
<g id="Group-16" transform="translate(336.000000, 35.333267)">
</g>
<path id="Fill-1_3_" class="st13" d="M336,159v-45.8c0-2.5,1.9-4.8,4.4-5.2c7.8-1.3,15.7-1.9,23.6-1.9s15.8,0.7,23.6,1.9
	c2.5,0.4,4.4,2.7,4.4,5.2V159c0,15.4-12.6,28-28,28S336,174.4,336,159z"/>
<path id="Fill-4_1_" class="st14" d="M337.3,159c0,14.7,11.9,26.7,26.7,26.7c14.7,0,26.7-11.9,26.7-26.7v-45.8
	c0-1.8-1.5-3.6-3.3-3.9c-15.5-2.6-31.3-2.6-46.7,0c-1.8,0.3-3.3,2.1-3.3,3.9V159z"/>
<path id="Fill-6" class="st15" d="M364,170.3c-5.4,0-9.8-4.4-10.3-9.9c0-0.5,0.3-1,0.9-1c1.4-0.1,4.4-0.4,9.4-0.4c5,0,8,0.2,9.4,0.4
	c0.5,0.1,0.9,0.5,0.9,1C373.8,165.9,369.4,170.3,364,170.3 M364,145c-7.7,0-14,6.3-14,14c0,7.7,6.3,14,14,14c7.7,0,14-6.3,14-14
	C378,151.3,371.7,145,364,145"/>
<path id="Fill-8" class="st16" d="M387.3,137.7v20.8c0,6.2-2.4,12.2-6.9,16.7c-4.5,4.6-10.4,7.1-16.6,7.1l-0.3,0
	c-12.6-0.3-22.9-10.8-22.9-23.3v-21.3v-23.4c0-0.8,0.7-1.6,1.4-1.7c7.2-1.3,14.6-1.9,21.9-1.9c7.3,0,14.7,0.6,21.9,1.9
	c0.8,0.1,1.4,0.9,1.4,1.7V137.7z M386,111.9c-7.3-1.3-14.6-1.9-22-1.9s-14.7,0.6-22,1.9c-1.1,0.2-2,1.3-2,2.4v23.4V159
	c0,12.9,10.5,23.6,23.5,24c0.1,0,0.2,0,0.3,0c13.3,0,24.2-11.3,24.2-24.5v-20.8v-23.4C388,113.2,387.1,112.1,386,111.9L386,111.9z"
	/>
<path id="Fill-10" class="st13" d="M382.1,137.4c0-0.4-0.1-0.7-0.4-1c-0.2-0.3-0.6-0.4-0.9-0.4c-0.2,0-0.5,0.1-0.7,0.2
	c-0.2,0.1-0.4,0.3-0.5,0.5v1.4c0.1,0.2,0.3,0.3,0.5,0.4c0.2,0.1,0.4,0.2,0.6,0.2c0.4,0,0.7-0.1,1-0.4S382.1,137.8,382.1,137.4
	L382.1,137.4z M382.8,137.4c0,0.5-0.2,1-0.6,1.4c-0.4,0.4-0.8,0.6-1.4,0.6c-0.5,0-0.9-0.2-1.2-0.5v0.4H379v-5.8h0.7v2.5
	c0.1-0.2,0.3-0.3,0.5-0.5c0.2-0.1,0.5-0.2,0.7-0.2c0.6,0,1,0.2,1.4,0.6C382.6,136.4,382.8,136.9,382.8,137.4L382.8,137.4z
	 M377.1,138.1c-0.1,0.2-0.3,0.4-0.5,0.5c-0.2,0.1-0.4,0.2-0.6,0.2c-0.3,0-0.5-0.1-0.7-0.3c-0.1-0.2-0.2-0.6-0.2-1.1v-1.9h-0.7v2
	c0,0.7,0.1,1.2,0.3,1.5c0.2,0.3,0.6,0.5,1.1,0.5c0.5,0,1-0.2,1.3-0.7v0.6h0.7v-3.9h-0.7V138.1z M372.5,139.4h0.7v-5.8h-0.7V139.4z
	 M369.9,138.8c-0.6,0-1.1-0.2-1.5-0.6c-0.4-0.4-0.6-0.9-0.6-1.6c0-0.6,0.2-1.1,0.6-1.5c0.4-0.4,0.9-0.6,1.5-0.6
	c0.4,0,0.8,0.1,1.1,0.3l0.3-0.6c-0.5-0.3-0.9-0.4-1.5-0.4c-0.8,0-1.5,0.3-2.1,0.8c-0.6,0.5-0.9,1.2-0.9,2c0,0.8,0.3,1.5,0.8,2
	c0.6,0.5,1.3,0.8,2.1,0.8c0.6,0,1.1-0.2,1.6-0.5l-0.4-0.6C370.7,138.7,370.3,138.8,369.9,138.8L369.9,138.8z M348.8,136.2
	c-0.4-0.1-1.4-0.3-1.4-0.8c0-0.1,0.1-0.5,0.9-0.5c0.5,0,1,0.1,1.5,0.3l0.3-1c-0.5-0.3-1.2-0.4-1.9-0.4c-0.6,0-1.1,0.2-1.5,0.4
	c-0.7,0.5-0.7,1.4-0.3,2c0.4,0.6,1.1,0.8,1.8,1c0.7,0.2,0.8,0.5,0.8,0.6c0,0.1-0.1,0.5-1,0.5c-0.5,0-1-0.2-1.5-0.4l-0.3,1
	c0.5,0.3,1.2,0.5,2,0.5c2.2,0,2.3-1.3,2.3-1.7C350.2,137,349.8,136.5,348.8,136.2L348.8,136.2z M364.6,136.8c0-0.2-0.3-0.8-1-0.6
	c-0.7,0.1-0.7,0.7-0.7,0.9L364.6,136.8z M365.9,137.4l-2.9,0.4c0,0,0.2,0.7,1.3,0.7c0.4,0,0.8-0.1,1.3-0.3l0.2,0.9
	c-0.6,0.2-1.2,0.3-1.7,0.3c-1.3,0-2.4-0.5-2.4-2c0-1.5,1.1-2.1,2.1-2.1c0.6,0,1.2,0.2,1.5,0.6C365.9,136.4,365.9,137.3,365.9,137.4
	L365.9,137.4z M356,135.3c-1,0-1.3,0.8-1.3,0.8s-0.3-0.8-1.3-0.8c-0.8,0-1.2,0.6-1.2,0.6h0v-0.5h-1.3v3.9h1.3V137
	c0-0.4,0.2-0.6,0.6-0.6s0.6,0.2,0.6,0.6v2.3h1.3V137c0-0.4,0.2-0.6,0.6-0.6c0.4,0,0.6,0.2,0.6,0.6v2.3h1.3v-2.5
	C357.3,135.8,356.9,135.3,356,135.3L356,135.3z M357.9,139.3h1.3v-3.9h-1.3V139.3z M359.9,139.3h1.3v-6h-1.3V139.3z M359.4,134.2
	c0,0.4-0.3,0.8-0.8,0.8s-0.8-0.3-0.8-0.8s0.3-0.8,0.8-0.8S359.4,133.7,359.4,134.2L359.4,134.2z"/>
<path id="Fill-14" class="st16" d="M382.7,131.2h-37.3c-0.2,0-0.3-0.1-0.3-0.3c0-0.2,0.1-0.3,0.3-0.3h37.3c0.2,0,0.3,0.1,0.3,0.3
	C383,131,382.9,131.2,382.7,131.2"/>
<rect id="Rectangle_11_" x="396" y="114" class="st17" width="55" height="55"/>
<g id="Group-23" transform="translate(18.000000, 17.200000)">
	
		<rect id="Rectangle_12_" x="404.8" y="111.2" transform="matrix(0.7071 -0.7071 0.7071 0.7071 31.2637 322.9773)" class="st18" width="1.5" height="25"/>
	
		<rect id="Rectangle_13_" x="393" y="123" transform="matrix(0.7071 -0.7071 0.7071 0.7071 31.2637 322.9773)" class="st18" width="25" height="1.5"/>
</g>
<path id="Page-1_1_" d="M137.3,170.7c-0.2-0.2-0.5-0.2-0.7,0c-0.2,0.2-0.2,0.4,0,0.6l0.1,0.1l5.3,5l-5.3,5c-0.2,0.2-0.2,0.4-0.1,0.6
	l0.1,0.1c0.2,0.2,0.4,0.2,0.6,0.1l0.1-0.1l5.7-5.4c0.2-0.2,0.2-0.5,0.1-0.7l-0.1-0.1L137.3,170.7z"/>
<path id="Line-5" d="M142,176c0.3,0,0.5,0.2,0.5,0.5c0,0.2-0.2,0.4-0.4,0.5l-0.1,0H85c-0.3,0-0.5-0.2-0.5-0.5c0-0.2,0.2-0.4,0.4-0.5
	l0.1,0H142z"/>
<path id="BG" class="st19" d="M64,219.5H14c-3.7,0-7.1-1.5-9.5-4c-2.4-2.4-4-5.8-4-9.5c0-3.7,1.5-7.1,4-9.5c2.4-2.4,5.8-4,9.5-4h50
	c3.7,0,7.1,1.5,9.5,4c2.4,2.4,4,5.8,4,9.5c0,3.7-1.5,7.1-4,9.5C71.1,218,67.7,219.5,64,219.5z"/>
<path id="ONAIR" class="st18" d="M18.8,210.5c0.8,0,1.5-0.1,2.1-0.4c0.7-0.2,1.2-0.6,1.7-1c0.5-0.5,0.8-1,1.1-1.6
	c0.3-0.6,0.4-1.4,0.4-2.2s-0.1-1.5-0.4-2.2c-0.3-0.6-0.6-1.2-1.1-1.6s-1-0.8-1.7-1c-0.7-0.2-1.4-0.4-2.1-0.4c-0.8,0-1.5,0.1-2.1,0.4
	c-0.7,0.2-1.2,0.6-1.7,1s-0.8,1-1.1,1.6c-0.3,0.6-0.4,1.4-0.4,2.2s0.1,1.5,0.4,2.2s0.6,1.2,1.1,1.6c0.5,0.5,1,0.8,1.7,1
	C17.3,210.4,18,210.5,18.8,210.5z M18.8,208.5c-0.5,0-0.9-0.1-1.3-0.2c-0.4-0.2-0.7-0.4-1-0.7s-0.5-0.6-0.6-1
	c-0.1-0.4-0.2-0.8-0.2-1.3c0-0.5,0.1-0.9,0.2-1.3s0.4-0.7,0.6-1s0.6-0.5,1-0.7c0.4-0.2,0.8-0.2,1.3-0.2c0.5,0,0.9,0.1,1.3,0.2
	c0.4,0.2,0.7,0.4,1,0.7c0.3,0.3,0.5,0.6,0.6,1s0.2,0.8,0.2,1.3c0,0.5-0.1,0.9-0.2,1.3c-0.1,0.4-0.4,0.7-0.6,1
	c-0.3,0.3-0.6,0.5-1,0.7C19.7,208.4,19.3,208.5,18.8,208.5z M27.8,210.3v-7.1h0l4.3,7.1H35v-9.9h-2.2v6.9h0l-4.2-6.9h-3v9.9H27.8z
	 M42.6,210.3l0.8-2.1h3.8l0.9,2.1h2.5l-4.3-9.9h-1.8l-4.3,9.9H42.6z M46.5,206.3h-2.4l1.2-3.1L46.5,206.3z M53.7,210.3v-9.9h-2.2
	v9.9H53.7z M57.9,210.3v-4H59l2.1,4h2.6l-2.5-4.2c0.7-0.1,1.2-0.4,1.6-0.9c0.4-0.5,0.5-1.1,0.5-1.8c0-0.6-0.1-1.1-0.3-1.4
	c-0.2-0.4-0.5-0.7-0.8-0.9s-0.7-0.4-1.2-0.5c-0.5-0.1-0.9-0.1-1.4-0.1l0,0h-3.8v9.9H57.9z M59.2,204.4h-1.3v-2.3h1.4
	c0.2,0,0.4,0,0.6,0s0.4,0.1,0.5,0.2c0.2,0.1,0.3,0.2,0.4,0.3c0.1,0.1,0.2,0.3,0.2,0.6c0,0.3-0.1,0.5-0.2,0.6
	c-0.1,0.1-0.3,0.3-0.4,0.3c-0.2,0.1-0.4,0.1-0.6,0.1C59.6,204.4,59.4,204.4,59.2,204.4L59.2,204.4z"/>
<path id="BG_1_" class="st20" d="M132,209.5H93c-2.9,0-5.5-1.2-7.4-3.1c-1.9-1.9-3.1-4.5-3.1-7.4c0-2.9,1.2-5.5,3.1-7.4
	c1.9-1.9,4.5-3.1,7.4-3.1h39c2.9,0,5.5,1.2,7.4,3.1c1.9,1.9,3.1,4.5,3.1,7.4c0,2.9-1.2,5.5-3.1,7.4
	C137.5,208.3,134.9,209.5,132,209.5z"/>
<path id="특별방송" class="st18" d="M101.4,198v-1.2h-6.1v-0.6h5.8V195h-5.8v-0.6h6v-1.2h-7.6v4.8H101.4z M102.5,200v-1.3h-10
	v1.3H102.5z M101.3,204v-3.4h-7.7v1.2h6.1v2.1H101.3z M111.8,198.7V193h-1.6v1.4h-2v-0.9h-1.5v1.3h-2.1v-1.3H103v4.9h5.2v-0.8h2v1.1
	H111.8z M110.2,196.4h-2v-0.8h2V196.4z M106.7,197.1h-2.1v-1.2h2.1V197.1z M112.1,203.9v-1.2h-6V202h5.7v-3h-7.3v1.2h5.7v0.6h-5.7v3
	H112.1z M121.3,199.5v-2.6h1.5v-1.3h-1.5V193h-1.6v6.5H121.3z M118.2,198.9v-5.2h-1.6v1.4h-2.2v-1.4h-1.6v5.2H118.2z M116.7,197.6
	h-2.2v-1.4h2.2V197.6z M117.7,204.1c2.3,0,3.7-0.8,3.7-2.2c0-1.4-1.4-2.2-3.7-2.2c-2.3,0-3.7,0.8-3.7,2.2
	C113.9,203.2,115.4,204.1,117.7,204.1z M117.7,202.8c-1.4,0-2.2-0.3-2.2-0.9c0-0.6,0.8-0.9,2.2-0.9c1.4,0,2.2,0.3,2.2,0.9
	C119.8,202.5,119.1,202.8,117.7,202.8z M131.5,197.6l0.6-1.2c-2.5-0.3-3.7-1.5-3.7-2.8v-0.3h-1.6v0.3c0,1.2-1.2,2.5-3.7,2.8l0.6,1.2
	c1.8-0.3,3.2-1.1,3.9-2.1C128.3,196.5,129.6,197.3,131.5,197.6z M132.6,199.5v-1.3h-4.2v-1.4h-1.6v1.4h-4.2v1.3H132.6z M127.6,204
	c2.4,0,3.8-0.7,3.8-2c0-1.3-1.4-2-3.8-2c-2.4,0-3.8,0.7-3.8,2C123.8,203.3,125.2,204,127.6,204z M127.6,202.9
	c-1.5,0-2.2-0.2-2.2-0.8c0-0.6,0.7-0.8,2.2-0.8c1.5,0,2.2,0.2,2.2,0.8C129.8,202.6,129.1,202.9,127.6,202.9z"/>
<path id="BG_2_" class="st20" d="M185,209.5h-26c-2.9,0-5.5-1.2-7.4-3.1c-1.9-1.9-3.1-4.5-3.1-7.4c0-2.9,1.2-5.5,3.1-7.4
	c1.9-1.9,4.5-3.1,7.4-3.1h26c2.9,0,5.5,1.2,7.4,3.1c1.9,1.9,3.1,4.5,3.1,7.4c0,2.9-1.2,5.5-3.1,7.4
	C190.5,208.3,187.9,209.5,185,209.5z"/>
<path id="LIVE" class="st18" d="M165.3,203v-1.7h-3.5v-6.8h-1.9v8.5H165.3z M168.2,203v-8.5h-1.9v8.5H168.2z M173.9,203l3.5-8.5h-2
	l-2.1,5.6h0l-2.1-5.6H169l3.4,8.5H173.9z M184.4,203v-1.7h-4.1v-1.7h3.7v-1.7h-3.7v-1.6h3.9v-1.7h-5.8v8.5H184.4z"/>
<path id="Page-1_2_" class="st18" d="M200,191.2c0-2.8,1.7-3.9,3.8-2.5l0.2,0.1l29.9,19.3c0,0,1.1,0.8,1.1,1.9
	c0,0.8-0.6,1.5-0.9,1.8l-0.1,0.1L204,231.1c-2.1,1.5-3.9,0.4-4-2.2l0-0.2V191.2z M202.5,190.8L202.5,190.8l0,0.2l0,0.2v37.4
	c0,0.1,0,0.2,0,0.3l0,0.1l0.1-0.1l29.5-19L202.5,190.8z"/>
<g id="Fill-1_4_" transform="translate(19.000000, 29.000000) scale(-1, 1) translate(-19.000000, -29.000000) ">
	<g class="st21">
		<path id="path-1_1_" class="st22" d="M-164.7,2.3c-0.3,0.3-0.4,0.9,0,1.2c0,0,0,0,0,0l25.2,24.5l0,0l-25.2,24.5
			c-0.3,0.3-0.4,0.9,0,1.2c0,0,0,0,0,0c0.4,0.3,0.9,0.3,1.3,0l25.7-25c0.4-0.4,0.4-1,0-1.4c0,0,0,0,0,0l-25.7-25
			C-163.8,1.9-164.4,1.9-164.7,2.3z"/>
	</g>
	<path class="st23" d="M-137.4,29.1l-25.7,25c-0.3,0.3-0.6,0.4-1,0.4c-0.4,0-0.7-0.1-1-0.4c-0.3-0.3-0.4-0.6-0.4-1
		c0-0.4,0.1-0.7,0.4-1l24.8-24.1l-24.8-24.1c-0.3-0.3-0.4-0.6-0.4-1c0-0.4,0.1-0.7,0.4-1c0.3-0.3,0.6-0.4,1-0.4c0.4,0,0.7,0.1,1,0.4
		l25.7,25c0.3,0.3,0.4,0.7,0.4,1.1C-136.9,28.4-137.1,28.8-137.4,29.1z"/>
</g>
<g id="Fill-1_5_">
	<g class="st24">
		<path id="path-3_1_" class="st22" d="M217.3,2.3c-0.3,0.3-0.4,0.9,0,1.2c0,0,0,0,0,0L242.4,28l0,0l-25.2,24.5
			c-0.3,0.3-0.4,0.9,0,1.2c0,0,0,0,0,0c0.4,0.3,0.9,0.3,1.3,0l25.7-25c0.4-0.4,0.4-1,0-1.4c0,0,0,0,0,0l-25.7-25
			C218.2,1.9,217.6,1.9,217.3,2.3z"/>
	</g>
	<path class="st23" d="M244.6,29.1l-25.7,25c-0.3,0.3-0.6,0.4-1,0.4c-0.4,0-0.7-0.1-1-0.4c-0.3-0.3-0.4-0.6-0.4-1
		c0-0.4,0.1-0.7,0.4-1L241.7,28L216.9,3.9c-0.3-0.3-0.4-0.6-0.4-1c0-0.4,0.1-0.7,0.4-1c0.3-0.3,0.6-0.4,1-0.4c0.4,0,0.7,0.1,1,0.4
		l25.7,25c0.3,0.3,0.4,0.7,0.4,1.1C245.1,28.4,244.9,28.8,244.6,29.1z"/>
</g>
<path id="Rectangle_14_" class="st12" d="M407.5,230.5H352c-5.4,0-10.3-2.2-13.8-5.7s-5.7-8.4-5.7-13.8c0-5.4,2.2-10.3,5.7-13.8
	s8.4-5.7,13.8-5.7h55.5V230.5z"/>
<path id="Rectangle-6" class="st25" d="M445.5,214.5h-33v-23h33V214.5z"/>
<path id="AD" class="st18" d="M422.1,207l0.7-2.2h3.2l0.7,2.2h2l-3.2-9.2h-2.3l-3.2,9.2H422.1z M425.6,203.3h-2.4l1.2-3.8h0
	L425.6,203.3z M433.3,207c2.7,0,4.4-1.7,4.4-4.6s-1.6-4.5-4.4-4.5h-3.5v9.2H433.3z M433,205.4h-1.4v-6h1.4c1.7,0,2.6,1.1,2.6,3
	C435.7,204.4,434.7,205.4,433,205.4z"/>
<radialGradient id="Fill-1_17_" cx="206.1727" cy="919.2443" r="0.6858" gradientTransform="matrix(-55 0 0 55 11377.4971 -50306.9375)" gradientUnits="userSpaceOnUse">
	<stop  offset="0" style="stop-color:#5100B8;stop-opacity:0.9"/>
	<stop  offset="1" style="stop-color:#280082"/>
</radialGradient>
<path id="Fill-1_6_" class="st26" d="M27.8,246.9c-0.9,0.3-1.7,1.3-1.8,2.4c-0.2,1.7,1.1,2.9,2.6,2.3c0.9-0.4,1.7-1.3,1.8-2.3
	C30.6,247.5,29.3,246.3,27.8,246.9 M69.6,254c0,0.5-0.5,0.8-1,0.7c-0.1,0-1.8-0.2-2.1-0.2c-0.5-0.1-0.9-0.5-0.9-1c0-1.4,0-1.4,0-2.9
	c0-1-0.9-1.9-1.8-2.1c-0.1,0-0.1,0-0.2,0c-0.3,0-0.5,0.2-0.5,0.4c0,2,0,2.3,0,4.3c0,0.5-0.4,0.9-0.8,0.9c-0.9-0.1-1.8-0.1-2.7-0.2
	c-0.5,0-0.9-0.5-0.9-1c0-4.3-0.1-8.5-0.1-12.8c0-0.5,0.4-0.9,0.8-0.8c0.9,0.1,1.6,0.2,2.5,0.4c0.5,0.1,0.9,0.6,0.9,1.1
	c0,0.9,0,1.8,0,2.7c0,0.3,0.2,0.5,0.5,0.6c0.1,0,0.1,0,0.2,0c3.5,0.5,6.2,3.6,6.1,7.3C69.6,252.8,69.6,252.6,69.6,254 M57.2,253.2
	c-1,0.8-2.3,1.3-3.8,1.4c-4,0.1-7.5-3.4-7.2-7.4c0.3-3.3,3.2-6.4,6.7-6.4c1.6,0,3,0.6,4.1,1.6c0.4,0.4,0.5,1,0.2,1.4
	c-0.5,0.8-0.8,1.2-1.3,2c-0.3,0.5-0.9,0.5-1.3,0.2c-0.3-0.3-0.8-0.5-1.3-0.5c-1.1,0-2.1,0.9-2.2,2.1c-0.1,1.3,1,2.3,2.2,2.3
	c0.5,0,0.9-0.2,1.3-0.4c0.4-0.4,1-0.2,1.3,0.3c0.5,0.9,0.8,1.3,1.3,2.1C57.7,252.2,57.6,252.8,57.2,253.2 M45.5,245.2
	c0,0.6-0.5,1.2-1.2,1.2c-0.7,0-1.2,0.1-1.8,0.1c-0.3,0-0.6,0.3-0.6,0.7c0,0.1,0,0.2,0,0.3c0,1.3,1.2,2.3,2.4,2.2c0,0,0,0,0,0
	c0.6,0,1.2,0.4,1.2,1.1c0,1.2,0,1.8,0,3c0,0.6-0.5,1.2-1.2,1.2c0,0,0,0,0,0c-4,0.4-7.6-2.1-7.7-7c0-3.3,0-6,0-9.3
	c0-0.7,0.5-1.2,1.2-1.3c1.2-0.1,1.7-0.1,2.9-0.1c0.6,0,1.2,0.5,1.2,1.1c0,1.1,0,1.1,0,2.2c0,0.3,0.3,0.6,0.6,0.6
	c0.7,0,1.2,0,1.9-0.1c0.6,0,1.2,0.5,1.2,1.1C45.5,243.4,45.5,244,45.5,245.2 M34.1,255.8c-1,0.2-1.5,0.3-2.4,0.5
	c-0.4,0.1-0.7-0.1-0.9-0.3c-0.1-0.2-0.3-0.2-0.5-0.1c-0.6,0.4-1.3,0.7-2,0.9c-3.8,0.9-7-2.3-7-6c0-3.9,2.9-8.5,6.9-9.2
	c0.7-0.1,1.4,0,2,0.1c0.2,0.1,0.4,0,0.5-0.2c0.2-0.3,0.5-0.6,0.9-0.7c1-0.1,1.5-0.2,2.5-0.3c0.6-0.1,1.2,0.4,1.2,1.1
	c0,2.1,0,4.2,0,6.4c0,0,0,0,0,0c0,0,0,0,0,0c0,2.1,0,4.3,0,6.4C35.2,255.1,34.7,255.7,34.1,255.8 M21.4,258.4
	c-1.5,1.7-4.3,3.1-6.4,3.4c-5.8,0.9-9.7-3.4-9-9.2c0.7-5.3,4.2-11.1,10.2-12.3c1.6-0.3,4.6,0.2,6.1,1.5c0.4,0.4,0.5,1.1,0.1,1.7
	c-1,1.5-0.8,1.2-1.8,2.7c-0.4,0.7-1.2,0.9-1.7,0.5c-0.7-0.4-1.6-0.6-2.4-0.5c-2.2,0.3-4.1,3.5-4.1,5.9c0,1.9,1.4,2.8,2.7,2.6
	c0.8-0.1,1.9-0.6,2.9-1.7c0.6-0.6,1.4-0.7,1.7-0.1c0.7,1.2,1.4,2.4,2.1,3.6C22.1,257.1,21.9,257.9,21.4,258.4 M75.7,244.8
	c-2.6-14.7-21.6-23.7-42.4-20c-20.8,3.7-35.6,18.6-33,33.3c2.6,14.7,21.6,23.7,42.4,20C63.5,274.5,78.3,259.6,75.7,244.8"/>
<circle id="Oval_5_" class="st27" cx="115" cy="259" r="34.5"/>
<path id="Fill-1_7_" class="st13" d="M125.3,261.5c-2.5,0-4.6-2.1-4.6-4.7c0-2.6,2.1-4.7,4.6-4.7s4.6,2.1,4.6,4.7
	C129.9,259.4,127.8,261.5,125.3,261.5 M124.8,247c-5,0-9.2,3.7-10,8.6h-6.6c-1.5,0-2.8,1.3-2.8,2.8c0,1.5,1.2,2.8,2.8,2.8h4.1
	c-1,1.8-2.8,2.9-5,2.9c-3.1,0-5.7-2.6-5.7-5.7c0-3.2,2.6-5.7,5.7-5.7c0.9,0,1.8,0.2,2.7,0.7c1.4,0.7,3,0.2,3.8-1.2
	c0.7-1.4,0.2-3.1-1.2-3.8c-1.6-0.9-3.4-1.3-5.3-1.3c-6.2,0-11.3,5.1-11.3,11.3c0,6.3,5.1,11.3,11.3,11.3c4.2,0,7.9-2.4,9.9-5.8
	c1.6,1.9,3.9,3.1,6.4,3.5l-2.2,3.3c-0.9,1.3-0.5,3,0.8,3.9c0.5,0.3,1,0.5,1.6,0.5c0.9,0,1.8-0.4,2.3-1.2l7.1-10.5c0,0,0,0,0,0
	c1.2-1.7,1.9-3.7,1.9-6C135,251.6,130.4,247,124.8,247"/>
<g id="icon" transform="translate(5.000000, 3.000000)">
	<path id="Path-3_6_" class="st28" d="M154.7,232.5c0.1-0.1,0.3-0.1,0.4,0l0.1,0.1l4.1,4.1c0.1,0.1,0.1,0.3,0.1,0.4l-0.1,0.1
		l-4.1,4.1c-0.1,0.1-0.4,0.1-0.5,0c-0.1-0.1-0.1-0.3-0.1-0.4l0.1-0.1l3.9-3.9l-3.9-3.9C154.6,232.9,154.6,232.7,154.7,232.5
		L154.7,232.5z"/>
</g>
<path id="Rectangle-6_1_" class="st29" d="M173.8,227.8h-19.5v-13.5h19.5V227.8z"/>
<path id="AD_1_" class="st30" d="M159.8,223.5l0.4-1.4h2l0.4,1.4h1.3l-2-5.6h-1.4l-2,5.6H159.8z M162,221.3h-1.5l0.7-2.3h0
	L162,221.3z M166.7,223.5c1.7,0,2.7-1.1,2.7-2.8s-1-2.8-2.7-2.8h-2.2v5.6H166.7z M166.5,222.5h-0.9v-3.7h0.9c1,0,1.6,0.6,1.6,1.8
	C168.1,221.9,167.6,222.5,166.5,222.5z"/>
<g id="Group">
	<path id="Fill-1_8_" class="st13" d="M87.4,303v6c0,1.2-0.4,2.2-1.7,2.2s-1.7-1-1.7-2.2v-6h-3.5v6.3c0,2.4,1.7,4.6,5.2,4.6
		c3.6,0,5.2-2.2,5.2-4.6V303H87.4z"/>
	<polygon id="Fill-3" class="st13" points="9.5,313.6 9.5,307.3 3.6,307.3 3.6,313.6 0,313.6 0,298.5 3.6,298.5 3.6,304.2 
		9.5,304.2 9.5,298.5 13.2,298.5 13.2,313.6 	"/>
	<path id="Fill-5" class="st13" d="M21,305.5c-1.6,0-2.5,1.3-2.5,2.7c0,1.4,0.9,2.8,2.5,2.8c1.6,0,2.5-1.4,2.5-2.8
		C23.6,306.9,22.7,305.5,21,305.5 M21,314c-3.2,0-5.9-2.2-5.9-5.7c0-3.5,2.7-5.6,5.9-5.6c3.2,0,5.9,2.1,5.9,5.6
		C26.9,311.7,24.3,314,21,314"/>
	<path id="Fill-7" class="st13" d="M42.3,313.6v-5.8c0-1.2-0.3-2.2-1.5-2.2c-1.2,0-1.8,1.1-1.8,2.3v5.7h-3.5v-6.1c0-1.2-0.5-2-1.5-2
		c-1.1,0-1.7,1-1.7,2.3v5.8h-3.5V303h3.4v1.5h0c0.5-0.9,1.6-1.8,3.2-1.8c1.5,0,2.6,0.7,3.2,1.8c0.7-1.1,1.8-1.8,3.4-1.8
		c2.9,0,3.9,2.3,3.9,4.4v6.6H42.3z"/>
	<path id="Fill-9" class="st13" d="M55.6,307.1c0-1.1-0.7-2-2.1-2c-1.3,0-2.3,0.9-2.4,2H55.6z M58.4,311.8c-1,1.4-2.7,2.2-4.8,2.2
		c-3.2,0-5.8-2-5.8-5.6c0-3.5,2.5-5.7,5.7-5.7c3.1,0,5.3,2.2,5.3,5.8c0,0.3,0,0.6,0,0.8h-7.7c0.1,1.2,1.3,2,2.5,2
		c1.1,0,1.8-0.4,2.3-1L58.4,311.8z"/>
	<path id="Fill-11" class="st13" d="M99.7,306.1c-0.6-0.5-1.4-1-2.2-1c-0.7,0-1.3,0.2-1.3,0.9c0,0.6,0.6,0.8,1.9,1.1
		c1.6,0.4,3.4,1.2,3.4,3.2c0,2.7-2.4,3.6-4.5,3.6c-1.7,0-3.5-0.6-4.6-1.6l2-2.1c0.6,0.7,1.6,1.2,2.6,1.2c0.6,0,1.3-0.2,1.3-0.9
		c0-0.7-0.7-0.9-2.1-1.2c-1.5-0.3-3.1-1.1-3.1-3.1c0-2.5,2.4-3.6,4.4-3.6c1.6,0,3.2,0.5,4.3,1.5L99.7,306.1z"/>
	<polygon id="Fill-14_1_" class="st13" points="74.6,313.6 78.2,313.6 78.2,298 74.6,298 	"/>
	<path id="Fill-16" class="st13" d="M66.8,305.5c1.7,0,2.5,1.3,2.5,2.7c0,1.4-0.8,2.8-2.5,2.8c-1.6,0-2.6-1.3-2.6-2.7
		C64.3,306.9,65.2,305.5,66.8,305.5L66.8,305.5z M64.4,318v-5.6h0c0.7,0.9,1.9,1.5,3.2,1.5c3.2,0,5.1-2.7,5.1-5.7c0-3-1.9-5.6-5-5.6
		c-1.6,0-2.8,0.7-3.4,1.6h-0.1V303h-3.3v15H64.4z"/>
</g>
<g id="Group-26">
	<g id="Group-3" transform="translate(9.000000, 4.941100)">
		<g id="Clip-2">
		</g>
		<defs>
			<filter id="Adobe_OpacityMaskFilter" filterUnits="userSpaceOnUse" x="0.7" y="323" width="14.5" height="12">
				<feColorMatrix  type="matrix" values="1 0 0 0 0  0 1 0 0 0  0 0 1 0 0  0 0 0 1 0"/>
			</filter>
		</defs>
		<mask maskUnits="userSpaceOnUse" x="0.7" y="323" width="14.5" height="12" id="mask-7_1_">
			<g class="st31">
				<polygon id="path-6_1_" class="st13" points="0.7,323 15.2,323 15.2,335 0.7,335 				"/>
			</g>
		</mask>
		<path id="Fill-1_9_" class="st32" d="M8,323c-4.5,0-7.2,2.7-7.2,6c0,3.3,2.7,6,7.2,6c4.5,0,7.2-2.7,7.2-6
			C15.2,325.7,12.5,323,8,323 M8,333.7c-2.1,0-3.7-2.1-3.7-4.7c0-2.6,1.6-4.7,3.7-4.7c2.1,0,3.7,2.1,3.7,4.7
			C11.7,331.6,10.1,333.7,8,333.7"/>
	</g>
	<polygon id="Fill-4_2_" class="st11" points="37,328.3 24.3,328.3 24.3,329.7 28.9,329.7 28.9,339.5 32.5,339.5 32.5,329.7 
		37,329.7 	"/>
	<polygon id="Fill-6_1_" class="st11" points="50.8,328.3 38.1,328.3 38.1,329.7 42.7,329.7 42.7,339.5 46.2,339.5 46.2,329.7 
		50.8,329.7 	"/>
	<path id="Fill-8_1_" class="st11" d="M56.6,329.6h6v-1.3h-8.9c-0.8,0-1.7,0.3-1.7,1.8v7.5c0,1.4,0.9,1.7,1.7,1.8h8.9v-1.3h-6
		c-0.8,0-1.1-0.4-1.1-1.2v-3h6.9v-1.3h-6.9v-1.7C55.5,330,55.8,329.7,56.6,329.6"/>
	<g id="Group-12_6_" transform="translate(0.000000, 5.941100)">
		<g id="Clip-11">
		</g>
		<defs>
			<filter id="Adobe_OpacityMaskFilter_1_" filterUnits="userSpaceOnUse" x="0" y="322.4" width="9.8" height="11.1">
				<feColorMatrix  type="matrix" values="1 0 0 0 0  0 1 0 0 0  0 0 1 0 0  0 0 0 1 0"/>
			</filter>
		</defs>
		<mask maskUnits="userSpaceOnUse" x="0" y="322.4" width="9.8" height="11.1" id="mask-9_1_">
			<g class="st33">
				<polygon id="path-8_1_" class="st13" points="0,322.4 9.8,322.4 9.8,333.5 0,333.5 				"/>
			</g>
		</mask>
		<path id="Fill-10_1_" class="st34" d="M4.7,332.2c-0.8,0-1.1-0.3-1.1-1.2v-8.5H0v9.3c0,1.4,0.9,1.7,1.7,1.8h8.1v-1.3H4.7z"/>
	</g>
	<path id="Fill-13" class="st11" d="M96.4,338.7c-1.3,0.7-3,0.9-4.2,0.9c-3.2,0-4.9-1.8-4.9-4.8c0-3.4,2.5-7,6.6-7
		c2.3,0,3.9,1.3,3.9,3.4c0,2.9-2.8,3.9-7.3,3.8c0,0.3,0.1,0.8,0.4,1.2c0.4,0.6,1.2,0.9,2.2,0.9c1.2,0,2.3-0.3,3.2-0.7L96.4,338.7z
		 M93.5,330.3c-1.5,0-2.4,1.3-2.7,2.3c2.6,0,3.9-0.3,3.9-1.4C94.7,330.7,94.2,330.3,93.5,330.3L93.5,330.3z"/>
	<path id="Fill-15" class="st11" d="M98.9,336.4c0.6,0.3,1.8,0.8,2.9,0.8c0.9,0,1.4-0.5,1.4-1c0-0.6-0.4-0.9-1.4-1.5
		c-1.3-0.6-2.4-1.6-2.4-3c0-2.4,2.1-3.9,5-3.9c1.3,0,2.4,0.3,2.9,0.6l-0.8,2.4c-0.5-0.2-1.3-0.5-2.2-0.5c-0.9,0-1.5,0.4-1.5,1
		c0,0.5,0.5,0.9,1.4,1.3c1.2,0.6,2.5,1.5,2.5,3.1c0,2.6-2.2,4-5.2,4c-1.4,0-2.8-0.4-3.4-0.9L98.9,336.4z"/>
	<g id="Group-19" transform="translate(108.000000, 0.941100)">
		<g id="Clip-18">
		</g>
		<defs>
			<filter id="Adobe_OpacityMaskFilter_2_" filterUnits="userSpaceOnUse" x="0.1" y="322.1" width="11.6" height="16.4">
				<feColorMatrix  type="matrix" values="1 0 0 0 0  0 1 0 0 0  0 0 1 0 0  0 0 0 1 0"/>
			</filter>
		</defs>
		<mask maskUnits="userSpaceOnUse" x="0.1" y="322.1" width="11.6" height="16.4" id="mask-11_1_">
			<g class="st35">
				<polygon id="path-10_1_" class="st13" points="0.1,322.1 11.8,322.1 11.8,338.4 0.1,338.4 				"/>
			</g>
		</mask>
		<path id="Fill-17" class="st36" d="M0.1,338.4l3.1-16.4h3.3l-1.3,6.6h0c0.9-1,2.1-1.7,3.6-1.7c1.8,0,2.8,1.1,2.8,3
			c0,0.5-0.1,1.4-0.2,2l-1.2,6.5H7l1.2-6.2c0.1-0.4,0.1-0.9,0.1-1.4c0-0.8-0.3-1.3-1.1-1.3c-1.2,0-2.4,1.4-2.8,3.7l-1,5.2H0.1z"/>
	</g>
	<path id="Fill-20" class="st11" d="M78.4,339.4l1.3-6.7c0.3-1.7,0.7-3.6,0.8-4.6h2.9c-0.2,0.8-0.4,1.9-0.5,2.6H83
		c1-2,2.2-2.5,3.8-2.5c0.2,0,0.4,0,0.6,0l-0.8,2.9c-0.2,0-0.3,0-0.5,0c-2.1,0-3.1,1.9-3.5,4.1l-0.8,4.2H78.4z"/>
	<path id="Fill-22" class="st11" d="M72.1,330.6l0.7-3.6c-0.4,0-0.8-0.1-1.3-0.1l-0.7,0c-0.1,0-0.2,0-0.3,0
		c-0.9,0.1-1.1,0.4-1.2,0.5l-2.3,12.2h3.3l1.2-6.3H77l0.6-2.8H72.1z"/>
	<path id="Fill-24" class="st11" d="M78.9,323.4h-1.8h-2.8c-0.9,0-1.8,0-2.7,0.2c-0.6,0.2-1.1,0.5-1.4,1.1c-0.3,0.5-0.3,1-0.4,1.5
		c0,0,0.8-0.5,3.1-0.3c0.7,0.1,1.5,0.1,2.4,0.1c1.5,0,3.3,0,4.8-0.8c0.8-0.4,1.3-1,1.9-2.3C81,323.3,80.2,323.4,78.9,323.4"/>
</g>
<g id="Group-24" transform="translate(-0.000000, 2.000000)">
	<path id="Fill-1_10_" class="st13" d="M7,367.6h2.6v2.7c-0.6,0.3-1.2,0.5-2,0.5c-2.6,0-3.9-2-3.9-4.8c0-2.8,1.3-4.7,3.8-4.7
		c1.5,0,2.9,0.6,4,1.3l0.5-3.2c-1.2-0.7-2.7-1.1-4.6-1.1c-4.6,0-7.5,3.1-7.5,7.8c0,4.6,2.6,7.7,7.4,7.7c2.1,0,3.9-0.6,5.5-1.6v-7.3
		H6.6L7,367.6z"/>
	<path id="Fill-3_1_" class="st13" d="M20.6,364.2c-1.9-0.7-2.3-1.1-2.3-1.9c0-0.7,0.6-1.2,1.7-1.2c1.2,0,2.6,0.4,4,1.2l0.6-3.2
		c-1.3-0.6-2.6-1-4.6-1c-2.9,0-5.2,1.6-5.2,4.5c0,2.5,1.3,3.5,4.4,4.7c2.1,0.8,2.6,1.2,2.6,2.1c0,0.9-0.7,1.4-1.8,1.4
		c-1.5,0-3.3-0.6-4.8-1.4l-0.5,3.2c1.5,0.7,3.3,1.1,5.3,1.1c3,0,5.4-1.4,5.4-4.7C25.2,366.5,23.9,365.4,20.6,364.2"/>
	<polygon id="Fill-5_1_" class="st13" points="29.6,358.2 41,358.2 41,361.3 33.1,361.3 33.1,364.5 39.9,364.5 39.9,367.6 
		33.1,367.6 33.1,373.7 29.6,373.7 	"/>
	<path id="Fill-7_1_" class="st13" d="M41.5,363.5h2.4l0.5,1.8c0.6-1.4,1.6-2.1,2.9-2.1c0.3,0,0.5,0,0.8,0.1v3.4
		c-0.3,0-0.6-0.1-0.8-0.1c-1.2,0-2,0.6-2.4,1.7v5.5h-3.3V363.5z"/>
	<path id="Fill-9_1_" class="st13" d="M52.2,367.5h3.9c-0.2-1.1-0.9-1.6-2-1.6C53.2,365.8,52.5,366.4,52.2,367.5 M55.2,371.3
		c1.2,0,2.3-0.3,3.3-1.2v2.9c-1.1,0.7-2.2,1-3.7,1c-3.8,0-6.1-2-6.1-5.5c0-3.2,2.1-5.3,5.3-5.3c3.1,0,5,1.9,5,4.9
		c0,0.5,0,0.9-0.1,1.6h-6.7C52.6,370.7,53.6,371.3,55.2,371.3"/>
	<path id="Fill-11_1_" class="st13" d="M60.2,373.1v-2.8c1,0.7,2.3,1.1,3.9,1.1c1.1,0,1.6-0.2,1.6-0.7c0-0.4-0.3-0.6-1.3-0.8
		l-1.3-0.2c-2.1-0.4-2.9-1.5-2.9-3.1c0-2.3,1.6-3.5,4.5-3.5c1.4,0,2.7,0.3,3.5,0.8v2.8c-1-0.6-2.2-1-3.5-1c-1,0-1.4,0.2-1.4,0.7
		c0,0.4,0.4,0.6,1.3,0.7l1.3,0.2c2,0.4,2.9,1.3,2.9,3.2c0,2.3-1.6,3.5-4.7,3.5C62.5,374,61.1,373.7,60.2,373.1"/>
	<path id="Fill-13_1_" class="st13" d="M70.5,357h3.3v7.4c0.7-0.8,1.6-1.2,2.8-1.2c2.2,0,3.5,1.4,3.5,4.1v6.4h-3.3v-5.9
		c0-1-0.4-1.6-1.3-1.6c-0.8,0-1.3,0.4-1.7,1.3v6.2h-3.3V357z"/>
	<polygon id="Fill-15_1_" class="st13" points="84.9,358.2 86.3,358.2 92.9,368.8 99.5,358.2 100.8,358.2 100.8,373.7 99.5,373.7 
		99.5,360.6 93.3,370.7 92.5,370.7 86.2,360.6 86.2,373.7 84.9,373.7 	"/>
	<g id="Group-19_1_" transform="translate(102.303571, 6.360034)">
		<g id="Clip-18_1_">
		</g>
		<defs>
			<filter id="Adobe_OpacityMaskFilter_3_" filterUnits="userSpaceOnUse" x="0.2" y="357" width="8.7" height="10.6">
				<feColorMatrix  type="matrix" values="1 0 0 0 0  0 1 0 0 0  0 0 1 0 0  0 0 0 1 0"/>
			</filter>
		</defs>
		<mask maskUnits="userSpaceOnUse" x="0.2" y="357" width="8.7" height="10.6" id="mask-13_1_">
			<g class="st37">
				<polygon id="path-12_1_" class="st13" points="0.2,357 9,357 9,367.6 0.2,367.6 				"/>
			</g>
		</mask>
		<path id="Fill-17_1_" class="st38" d="M7.7,364.4v-1.2c-1-0.5-2.1-0.8-3.3-0.8c-1.8,0-2.8,0.7-2.8,2c0,1.3,0.9,2,2.5,2
			C5.6,366.4,6.7,365.8,7.7,364.4 M0.2,364.5c0-2,1.5-3.2,4-3.2c1.1,0,2.4,0.3,3.5,0.8v-0.7c0-2.1-1-3.1-3.1-3.1
			c-1.4,0-2.6,0.5-3.5,1.4v-1.4c0.9-0.8,2.2-1.2,3.6-1.2c2.8,0,4.2,1.4,4.2,4.1v6.2h-1l-0.2-1.6c-1,1.2-2.3,1.9-3.9,1.9
			C1.6,367.6,0.2,366.4,0.2,364.5"/>
	</g>
	<g id="Clip-21">
	</g>
	<defs>
		<filter id="Adobe_OpacityMaskFilter_4_" filterUnits="userSpaceOnUse" x="113.7" y="357" width="1.3" height="16.7">
			<feColorMatrix  type="matrix" values="1 0 0 0 0  0 1 0 0 0  0 0 1 0 0  0 0 0 1 0"/>
		</filter>
	</defs>
	<mask maskUnits="userSpaceOnUse" x="113.7" y="357" width="1.3" height="16.7" id="mask-15_1_">
		<g class="st39">
			<polygon id="path-14_1_" class="st13" points="0,374 122.5,374 122.5,357 0,357 			"/>
		</g>
	</mask>
	<polygon id="Fill-20_1_" class="st40" points="113.7,373.7 115,373.7 115,357 113.7,357 	"/>
	<defs>
		<filter id="Adobe_OpacityMaskFilter_5_" filterUnits="userSpaceOnUse" x="117.4" y="357" width="1.3" height="16.7">
			<feColorMatrix  type="matrix" values="1 0 0 0 0  0 1 0 0 0  0 0 1 0 0  0 0 0 1 0"/>
		</filter>
	</defs>
	<mask maskUnits="userSpaceOnUse" x="117.4" y="357" width="1.3" height="16.7" id="mask-15_2_">
		<g class="st41">
			<polygon id="path-14_2_" class="st13" points="0,374 122.5,374 122.5,357 0,357 			"/>
		</g>
	</mask>
	<polygon id="Fill-22_1_" class="st42" points="117.4,373.7 118.7,373.7 118.7,357 117.4,357 	"/>
	<defs>
		<filter id="Adobe_OpacityMaskFilter_6_" filterUnits="userSpaceOnUse" x="120.4" y="371.6" width="2.1" height="2.1">
			<feColorMatrix  type="matrix" values="1 0 0 0 0  0 1 0 0 0  0 0 1 0 0  0 0 0 1 0"/>
		</filter>
	</defs>
	<mask maskUnits="userSpaceOnUse" x="120.4" y="371.6" width="2.1" height="2.1" id="mask-15_3_">
		<g class="st43">
			<polygon id="path-14_3_" class="st13" points="0,374 122.5,374 122.5,357 0,357 			"/>
		</g>
	</mask>
	<path id="Fill-23" class="st44" d="M120.4,372.6c0-0.6,0.4-1.1,1.1-1.1c0.6,0,1.1,0.4,1.1,1.1s-0.4,1.1-1.1,1.1
		C120.9,373.7,120.4,373.3,120.4,372.6"/>
</g>
<path id="Fill-1_11_" class="st45" d="M168.4,256.2c-3.8,0-6.1,2.3-6.1,5.1c0,2.8,2.3,5.1,6.1,5.1c3.8,0,6.1-2.3,6.1-5.1
	C174.6,258.5,172.3,256.2,168.4,256.2 M168.4,265.3c-1.8,0-3.1-1.8-3.1-4c0-2.2,1.3-4,3.1-4c1.8,0,3.1,1.8,3.1,4
	C171.6,263.5,170.2,265.3,168.4,265.3"/>
<polygon id="Fill-3_2_" class="st45" points="185.4,256.5 174.7,256.5 174.7,257.7 178.5,257.7 178.5,266 181.6,266 181.6,257.7 
	185.4,257.7 "/>
<polygon id="Fill-5_2_" class="st45" points="197.2,256.5 186.4,256.5 186.4,257.7 190.3,257.7 190.3,266 193.3,266 193.3,257.7 
	197.2,257.7 "/>
<path id="Fill-7_2_" class="st45" d="M202.1,257.7h5.1v-1.1h-7.6c-0.7,0-1.4,0.3-1.4,1.5v6.4c0,1.2,0.8,1.5,1.4,1.5h7.6v-1.1h-5.1
	c-0.6,0-0.9-0.3-0.9-1.1v-2.6h5.9v-1.1h-5.9v-1.4C201.2,258,201.4,257.7,202.1,257.7"/>
<g id="Group-11" transform="translate(0.000000, 3.997000)">
	<g id="Clip-10">
	</g>
	<defs>
		<filter id="Adobe_OpacityMaskFilter_7_" filterUnits="userSpaceOnUse" x="154" y="252.5" width="8.3" height="9.4">
			<feColorMatrix  type="matrix" values="1 0 0 0 0  0 1 0 0 0  0 0 1 0 0  0 0 0 1 0"/>
		</filter>
	</defs>
	<mask maskUnits="userSpaceOnUse" x="154" y="252.5" width="8.3" height="9.4" id="mask-17_1_">
		<g class="st46">
			<polygon id="path-16_1_" class="st13" points="154,252.5 162.3,252.5 162.3,262 154,262 			"/>
		</g>
	</mask>
	<path id="Fill-9_2_" class="st47" d="M158,260.8c-0.6,0-0.9-0.3-0.9-1v-7.3h-3v7.9c0,1.2,0.7,1.5,1.4,1.5h6.9v-1.1H158z"/>
</g>
<path id="Fill-12_1_" class="st45" d="M235.9,265.4c-1.1,0.6-2.5,0.8-3.6,0.8c-2.7,0-4.1-1.5-4.1-4.1c0-2.9,2.1-6,5.6-6
	c1.9,0,3.3,1.1,3.3,2.9c0,2.4-2.4,3.3-6.2,3.2c0,0.3,0.1,0.7,0.3,1c0.4,0.5,1,0.7,1.8,0.7c1,0,1.9-0.2,2.7-0.6L235.9,265.4z
	 M233.5,258.2c-1.3,0-2.1,1.1-2.3,2c2.2,0,3.3-0.3,3.3-1.2C234.5,258.5,234.1,258.2,233.5,258.2L233.5,258.2z"/>
<path id="Fill-14_2_" class="st45" d="M238.1,263.4c0.5,0.3,1.6,0.7,2.5,0.7c0.8,0,1.2-0.4,1.2-0.9c0-0.5-0.3-0.8-1.2-1.2
	c-1.1-0.5-2-1.4-2-2.5c0-2,1.7-3.3,4.2-3.3c1.1,0,2,0.2,2.5,0.5l-0.7,2c-0.4-0.2-1.1-0.4-1.9-0.4c-0.8,0-1.3,0.3-1.3,0.8
	c0,0.4,0.4,0.7,1.2,1.1c1.1,0.5,2.2,1.3,2.2,2.6c0,2.2-1.9,3.4-4.4,3.4c-1.2,0-2.4-0.3-2.9-0.7L238.1,263.4z"/>
<path id="Fill-16_1_" class="st45" d="M245.9,265.9l2.6-13.9h2.8l-1.1,5.6h0c0.8-0.9,1.8-1.5,3.1-1.5c1.5,0,2.4,0.9,2.4,2.6
	c0,0.5-0.1,1.2-0.2,1.7l-1,5.5h-2.8l1-5.3c0.1-0.4,0.1-0.8,0.1-1.2c0-0.6-0.3-1.1-1-1.1c-1,0-2,1.2-2.4,3.1l-0.8,4.4H245.9z"/>
<path id="Fill-18" class="st45" d="M220.7,265.9l1.1-5.7c0.3-1.5,0.6-3.1,0.7-3.9h2.5c-0.1,0.7-0.3,1.6-0.5,2.2h0.1
	c0.8-1.7,1.9-2.2,3.2-2.2c0.2,0,0.4,0,0.5,0l-0.6,2.5c-0.1,0-0.3,0-0.5,0c-1.8,0-2.6,1.6-3,3.5l-0.7,3.6H220.7z"/>
<path id="Fill-20_2_" class="st45" d="M215.3,258.4l0.6-3c-0.3,0-0.7-0.1-1.1-0.1l-0.6,0c-0.1,0-0.1,0-0.2,0c-0.8,0.1-1,0.3-1,0.4
	l-2,10.4h2.8l1-5.3h4.6l0.5-2.4H215.3z"/>
<path id="Fill-22_2_" class="st48" d="M221.1,252.3h-1.5h-2.4c-0.8,0-1.6,0-2.3,0.2c-0.5,0.1-0.9,0.5-1.2,0.9
	c-0.2,0.4-0.3,0.8-0.4,1.3c0,0,0.7-0.4,2.6-0.2c0.6,0.1,1.3,0.1,2,0.1c1.3,0,2.8,0,4.1-0.7c0.7-0.4,1.1-0.8,1.6-1.9
	C222.9,252.2,222.1,252.3,221.1,252.3"/>
<g id="Group_1_">
	<path id="Fill-1_12_" class="st45" d="M334.3,256.2v5.1c0,1-0.4,1.9-1.5,1.9s-1.5-0.9-1.5-1.9v-5.1h-3v5.3c0,2.1,1.4,3.9,4.5,3.9
		c3,0,4.5-1.9,4.5-3.9v-5.3H334.3z"/>
	<polygon id="Fill-3_3_" class="st45" points="268.1,265.3 268.1,259.9 263.1,259.9 263.1,265.3 260,265.3 260,252.4 263.1,252.4 
		263.1,257.3 268.1,257.3 268.1,252.4 271.2,252.4 271.2,265.3 	"/>
	<path id="Fill-5_3_" class="st45" d="M277.9,258.4c-1.4,0-2.1,1.1-2.1,2.3c0,1.2,0.7,2.3,2.1,2.3c1.4,0,2.1-1.2,2.1-2.3
		C280,259.6,279.3,258.4,277.9,258.4 M277.9,265.6c-2.7,0-5-1.9-5-4.8c0-3,2.3-4.8,5-4.8c2.7,0,5,1.8,5,4.8
		C282.9,263.7,280.6,265.6,277.9,265.6"/>
	<path id="Fill-7_3_" class="st45" d="M296,265.3v-4.9c0-1-0.2-1.9-1.3-1.9c-1,0-1.5,0.9-1.5,2v4.9h-3v-5.1c0-1-0.4-1.7-1.3-1.7
		c-0.9,0-1.5,0.9-1.5,1.9v4.9h-3v-9h2.9v1.3h0c0.4-0.8,1.3-1.5,2.7-1.5c1.3,0,2.2,0.6,2.7,1.5c0.6-0.9,1.5-1.5,2.9-1.5
		c2.4,0,3.3,2,3.3,3.7v5.6H296z"/>
	<path id="Fill-9_3_" class="st45" d="M307.3,259.7c0-0.9-0.6-1.7-1.8-1.7c-1.1,0-2,0.8-2,1.7H307.3z M309.6,263.7
		c-0.9,1.2-2.3,1.9-4.1,1.9c-2.7,0-5-1.7-5-4.8c0-3,2.1-4.8,4.9-4.8c2.7,0,4.5,1.8,4.5,4.9c0,0.2,0,0.5,0,0.7h-6.5
		c0.1,1,1.1,1.7,2.2,1.7c0.9,0,1.5-0.4,2-0.9L309.6,263.7z"/>
	<path id="Fill-11_2_" class="st45" d="M344.8,258.9c-0.5-0.5-1.2-0.8-1.9-0.8c-0.6,0-1.1,0.2-1.1,0.7c0,0.5,0.5,0.7,1.7,0.9
		c1.4,0.3,2.9,1,2.9,2.8c0,2.3-2,3.1-3.9,3.1c-1.5,0-3-0.5-3.9-1.4l1.7-1.8c0.5,0.6,1.3,1,2.2,1c0.5,0,1.1-0.2,1.1-0.8
		c0-0.6-0.6-0.7-1.8-1c-1.3-0.3-2.6-0.9-2.6-2.6c0-2.2,2-3,3.8-3c1.3,0,2.7,0.4,3.6,1.3L344.8,258.9z"/>
	<polygon id="Fill-14_3_" class="st45" points="323.4,265.3 326.4,265.3 326.4,252 323.4,252 	"/>
	<path id="Fill-16_2_" class="st45" d="M316.8,258.4c1.4,0,2.1,1.1,2.1,2.3c0,1.2-0.7,2.3-2.1,2.3c-1.3,0-2.2-1.1-2.2-2.3
		C314.6,259.6,315.5,258.4,316.8,258.4L316.8,258.4z M314.7,269v-4.7h0c0.6,0.8,1.6,1.3,2.7,1.3c2.7,0,4.3-2.3,4.3-4.8
		c0-2.5-1.7-4.7-4.3-4.7c-1.3,0-2.3,0.6-2.9,1.4h-0.1v-1.1h-2.8V269H314.7z"/>
</g>
<g id="Group-24_1_" transform="translate(0.000000, 1.000000)">
	<path id="Fill-1_13_" class="st49" d="M357.2,261.3h2.3v2.4c-0.5,0.3-1.1,0.4-1.8,0.4c-2.3,0-3.4-1.7-3.4-4.2
		c0-2.5,1.1-4.2,3.4-4.2c1.4,0,2.5,0.5,3.5,1.1l0.4-2.8c-1.1-0.6-2.4-1-4-1c-4.1,0-6.6,2.8-6.6,6.9c0,4.1,2.3,6.8,6.5,6.8
		c1.8,0,3.4-0.5,4.8-1.4v-6.4h-5.5L357.2,261.3z"/>
	<path id="Fill-3_4_" class="st49" d="M369.1,258.3c-1.7-0.6-2-1-2-1.7c0-0.6,0.5-1,1.5-1c1,0,2.3,0.4,3.5,1.1l0.5-2.8
		c-1.2-0.6-2.3-0.9-4-0.9c-2.6,0-4.6,1.4-4.6,4c0,2.2,1.2,3.1,3.8,4.1c1.9,0.7,2.3,1.1,2.3,1.8c0,0.8-0.7,1.2-1.6,1.2
		c-1.3,0-2.9-0.5-4.2-1.2l-0.5,2.8c1.4,0.6,2.9,1,4.7,1c2.7,0,4.8-1.3,4.8-4.2C373.2,260.4,372.1,259.4,369.1,258.3"/>
	<polygon id="Fill-5_4_" class="st49" points="377.1,253 387.2,253 387.2,255.8 380.2,255.8 380.2,258.6 386.2,258.6 386.2,261.3 
		380.2,261.3 380.2,266.7 377.1,266.7 	"/>
	<path id="Fill-7_4_" class="st49" d="M387.6,257.7h2.1l0.4,1.6c0.6-1.3,1.4-1.8,2.6-1.8c0.2,0,0.5,0,0.7,0.1v3
		c-0.3,0-0.5-0.1-0.7-0.1c-1.1,0-1.8,0.5-2.1,1.5v4.8h-2.9V257.7z"/>
	<path id="Fill-9_4_" class="st49" d="M397.1,261.2h3.5c-0.2-1-0.8-1.4-1.7-1.4C397.9,259.8,397.3,260.3,397.1,261.2 M399.7,264.6
		c1.1,0,2-0.3,2.9-1v2.5c-1,0.6-2,0.9-3.3,0.9c-3.3,0-5.4-1.8-5.4-4.8c0-2.9,1.8-4.7,4.7-4.7c2.8,0,4.4,1.7,4.4,4.3
		c0,0.4,0,0.8-0.1,1.4h-6C397.4,264.1,398.3,264.6,399.7,264.6"/>
	<path id="Fill-11_3_" class="st49" d="M404.1,266.2v-2.5c0.9,0.6,2.1,1,3.5,1c1,0,1.4-0.2,1.4-0.6c0-0.4-0.3-0.5-1.1-0.7l-1.2-0.2
		c-1.9-0.3-2.6-1.3-2.6-2.7c0-2,1.4-3.1,4-3.1c1.2,0,2.4,0.2,3.1,0.7v2.4c-0.9-0.6-1.9-0.9-3.1-0.9c-0.9,0-1.2,0.2-1.2,0.6
		c0,0.4,0.3,0.5,1.1,0.6l1.2,0.2c1.7,0.3,2.6,1.2,2.6,2.8c0,2-1.4,3.1-4.2,3.1C406.2,267,404.9,266.7,404.1,266.2"/>
	<path id="Fill-13_2_" class="st49" d="M413.2,252h2.9v6.5c0.6-0.7,1.5-1.1,2.5-1.1c2,0,3,1.2,3,3.6v5.7h-2.9v-5.2
		c0-0.9-0.4-1.4-1.1-1.4c-0.7,0-1.2,0.4-1.5,1.1v5.5h-2.9V252z"/>
	<polygon id="Fill-15_2_" class="st50" points="425.9,253 427.1,253 432.9,262.4 438.8,253 440,253 440,266.7 438.8,266.7 
		438.8,255.2 433.3,264.1 432.6,264.1 427.1,255.2 427.1,266.7 425.9,266.7 	"/>
	<g id="Group-19_2_" transform="translate(90.267857, 5.611795)">
		<g id="Clip-18_2_">
		</g>
		<defs>
			<filter id="Adobe_OpacityMaskFilter_8_" filterUnits="userSpaceOnUse" x="351.2" y="252" width="7.7" height="9.4">
				<feColorMatrix  type="matrix" values="1 0 0 0 0  0 1 0 0 0  0 0 1 0 0  0 0 0 1 0"/>
			</filter>
		</defs>
		<mask maskUnits="userSpaceOnUse" x="351.2" y="252" width="7.7" height="9.4" id="mask-19_1_">
			<g class="st51">
				<polygon id="path-18_1_" class="st13" points="351.2,252 358.9,252 358.9,261.4 351.2,261.4 				"/>
			</g>
		</mask>
		<path id="Fill-17_2_" class="st52" d="M357.8,258.5v-1.1c-0.9-0.4-1.9-0.7-2.9-0.7c-1.6,0-2.5,0.6-2.5,1.8c0,1.1,0.8,1.8,2.2,1.8
			C355.9,260.3,356.9,259.7,357.8,258.5 M351.2,258.6c0-1.8,1.3-2.9,3.5-2.9c1,0,2.1,0.2,3.1,0.7v-0.6c0-1.9-0.9-2.8-2.7-2.8
			c-1.2,0-2.3,0.4-3.1,1.2v-1.2c0.8-0.7,1.9-1,3.2-1c2.4,0,3.7,1.2,3.7,3.7v5.5H358l-0.2-1.4c-0.9,1.1-2,1.7-3.4,1.7
			C352.4,261.4,351.2,260.3,351.2,258.6"/>
	</g>
	<g id="Clip-21_1_">
	</g>
	<defs>
		<filter id="Adobe_OpacityMaskFilter_9_" filterUnits="userSpaceOnUse" x="451.3" y="252" width="1.2" height="14.7">
			<feColorMatrix  type="matrix" values="1 0 0 0 0  0 1 0 0 0  0 0 1 0 0  0 0 0 1 0"/>
		</filter>
	</defs>
	<mask maskUnits="userSpaceOnUse" x="451.3" y="252" width="1.2" height="14.7" id="mask-21_1_">
		<g class="st53">
			<polygon id="path-20_1_" class="st13" points="351,267 459.1,267 459.1,252 351,252 			"/>
		</g>
	</mask>
	<polygon id="Fill-20_3_" class="st54" points="451.3,266.7 452.5,266.7 452.5,252 451.3,252 	"/>
	<defs>
		<filter id="Adobe_OpacityMaskFilter_10_" filterUnits="userSpaceOnUse" x="454.6" y="252" width="1.2" height="14.7">
			<feColorMatrix  type="matrix" values="1 0 0 0 0  0 1 0 0 0  0 0 1 0 0  0 0 0 1 0"/>
		</filter>
	</defs>
	<mask maskUnits="userSpaceOnUse" x="454.6" y="252" width="1.2" height="14.7" id="mask-21_2_">
		<g class="st55">
			<polygon id="path-20_2_" class="st13" points="351,267 459.1,267 459.1,252 351,252 			"/>
		</g>
	</mask>
	<polygon id="Fill-22_3_" class="st56" points="454.6,266.7 455.8,266.7 455.8,252 454.6,252 	"/>
	<defs>
		<filter id="Adobe_OpacityMaskFilter_11_" filterUnits="userSpaceOnUse" x="457.3" y="264.9" width="1.9" height="1.9">
			<feColorMatrix  type="matrix" values="1 0 0 0 0  0 1 0 0 0  0 0 1 0 0  0 0 0 1 0"/>
		</filter>
	</defs>
	<mask maskUnits="userSpaceOnUse" x="457.3" y="264.9" width="1.9" height="1.9" id="mask-21_3_">
		<g class="st57">
			<polygon id="path-20_3_" class="st13" points="351,267 459.1,267 459.1,252 351,252 			"/>
		</g>
	</mask>
	<path id="Fill-23_1_" class="st58" d="M457.3,265.8c0-0.5,0.4-0.9,0.9-0.9c0.5,0,0.9,0.4,0.9,0.9s-0.4,0.9-0.9,0.9
		C457.7,266.7,457.3,266.3,457.3,265.8"/>
</g>
<g id="Group-24_2_">
	<path id="Fill-1_14_" class="st11" d="M168.4,277.2c-3.8,0-6.1,2.3-6.1,5.1c0,2.8,2.3,5.1,6.1,5.1c3.8,0,6.1-2.3,6.1-5.1
		C174.6,279.5,172.3,277.2,168.4,277.2 M168.4,286.3c-1.8,0-3.1-1.8-3.1-4c0-2.2,1.3-4,3.1-4c1.8,0,3.1,1.8,3.1,4
		C171.6,284.5,170.2,286.3,168.4,286.3"/>
	<polygon id="Fill-3_5_" class="st11" points="185.4,277.5 174.7,277.5 174.7,278.7 178.5,278.7 178.5,287 181.6,287 181.6,278.7 
		185.4,278.7 	"/>
	<polygon id="Fill-5_5_" class="st11" points="197.2,277.5 186.4,277.5 186.4,278.7 190.3,278.7 190.3,287 193.3,287 193.3,278.7 
		197.2,278.7 	"/>
	<path id="Fill-7_5_" class="st11" d="M202.1,278.7h5.1v-1.1h-7.6c-0.7,0-1.4,0.3-1.4,1.5v6.4c0,1.2,0.8,1.5,1.4,1.5h7.6v-1.1h-5.1
		c-0.6,0-0.9-0.3-0.9-1.1v-2.6h5.9v-1.1h-5.9v-1.4C201.2,279,201.4,278.7,202.1,278.7"/>
	<g id="Group-11_1_" transform="translate(0.000000, 4.400000)">
		<g id="Clip-10_1_">
		</g>
		<defs>
			<filter id="Adobe_OpacityMaskFilter_12_" filterUnits="userSpaceOnUse" x="154" y="273.1" width="8.3" height="9.4">
				<feColorMatrix  type="matrix" values="1 0 0 0 0  0 1 0 0 0  0 0 1 0 0  0 0 0 1 0"/>
			</filter>
		</defs>
		<mask maskUnits="userSpaceOnUse" x="154" y="273.1" width="8.3" height="9.4" id="mask-23_1_">
			<g class="st59">
				<polygon id="path-22_1_" class="st13" points="154,273.1 162.3,273.1 162.3,282.6 154,282.6 				"/>
			</g>
		</mask>
		<path id="Fill-9_5_" class="st60" d="M158,281.4c-0.6,0-0.9-0.3-0.9-1v-7.3h-3v7.9c0,1.2,0.7,1.5,1.4,1.5h6.9v-1.1H158z"/>
	</g>
	<path id="Fill-12_2_" class="st11" d="M235.9,286.4c-1.1,0.6-2.5,0.8-3.6,0.8c-2.7,0-4.1-1.5-4.1-4.1c0-2.9,2.1-6,5.6-6
		c1.9,0,3.3,1.1,3.3,2.9c0,2.4-2.4,3.3-6.2,3.2c0,0.3,0.1,0.7,0.3,1c0.4,0.5,1,0.7,1.8,0.7c1,0,1.9-0.2,2.7-0.6L235.9,286.4z
		 M233.5,279.2c-1.3,0-2.1,1.1-2.3,2c2.2,0,3.3-0.3,3.3-1.2C234.5,279.5,234.1,279.2,233.5,279.2L233.5,279.2z"/>
	<path id="Fill-14_4_" class="st11" d="M238.1,284.4c0.5,0.3,1.6,0.7,2.5,0.7c0.8,0,1.2-0.4,1.2-0.9c0-0.5-0.3-0.8-1.2-1.2
		c-1.1-0.5-2-1.4-2-2.5c0-2,1.7-3.3,4.2-3.3c1.1,0,2,0.2,2.5,0.5l-0.7,2c-0.4-0.2-1.1-0.4-1.9-0.4c-0.8,0-1.3,0.3-1.3,0.8
		c0,0.4,0.4,0.7,1.2,1.1c1.1,0.5,2.2,1.3,2.2,2.6c0,2.2-1.9,3.4-4.4,3.4c-1.2,0-2.4-0.3-2.9-0.7L238.1,284.4z"/>
	<path id="Fill-16_3_" class="st11" d="M245.9,286.9l2.6-13.9h2.8l-1.1,5.6h0c0.8-0.9,1.8-1.5,3.1-1.5c1.5,0,2.4,0.9,2.4,2.6
		c0,0.5-0.1,1.2-0.2,1.7l-1,5.5h-2.8l1-5.3c0.1-0.4,0.1-0.8,0.1-1.2c0-0.6-0.3-1.1-1-1.1c-1,0-2,1.2-2.4,3.1l-0.8,4.4H245.9z"/>
	<path id="Fill-18_1_" class="st11" d="M220.7,286.9l1.1-5.7c0.3-1.5,0.6-3.1,0.7-3.9h2.5c-0.1,0.7-0.3,1.6-0.5,2.2h0.1
		c0.8-1.7,1.9-2.2,3.2-2.2c0.2,0,0.4,0,0.5,0l-0.6,2.5c-0.1,0-0.3,0-0.5,0c-1.8,0-2.6,1.6-3,3.5l-0.7,3.6H220.7z"/>
	<path id="Fill-20_4_" class="st11" d="M215.3,279.4l0.6-3c-0.3,0-0.7-0.1-1.1-0.1l-0.6,0c-0.1,0-0.1,0-0.2,0c-0.8,0.1-1,0.3-1,0.4
		l-2,10.4h2.8l1-5.3h4.6l0.5-2.4H215.3z"/>
	<path id="Fill-22_4_" class="st11" d="M221.1,273.3h-1.5h-2.4c-0.8,0-1.6,0-2.3,0.2c-0.5,0.1-0.9,0.5-1.2,0.9
		c-0.2,0.4-0.3,0.8-0.4,1.3c0,0,0.7-0.4,2.6-0.2c0.6,0.1,1.3,0.1,2,0.1c1.3,0,2.8,0,4.1-0.7c0.7-0.4,1.1-0.8,1.6-1.9
		C222.9,273.2,222.1,273.3,221.1,273.3"/>
</g>
<g id="Group_2_">
	<path id="Fill-1_15_" class="st13" d="M334.3,277.2v5.1c0,1-0.4,1.9-1.5,1.9s-1.5-0.9-1.5-1.9v-5.1h-3v5.3c0,2.1,1.4,3.9,4.5,3.9
		c3,0,4.5-1.9,4.5-3.9v-5.3H334.3z"/>
	<polygon id="Fill-3_6_" class="st13" points="268.1,286.3 268.1,280.9 263.1,280.9 263.1,286.3 260,286.3 260,273.4 263.1,273.4 
		263.1,278.3 268.1,278.3 268.1,273.4 271.2,273.4 271.2,286.3 	"/>
	<path id="Fill-5_6_" class="st13" d="M277.9,279.4c-1.4,0-2.1,1.1-2.1,2.3c0,1.2,0.7,2.3,2.1,2.3c1.4,0,2.1-1.2,2.1-2.3
		C280,280.6,279.3,279.4,277.9,279.4 M277.9,286.6c-2.7,0-5-1.9-5-4.8c0-3,2.3-4.8,5-4.8c2.7,0,5,1.8,5,4.8
		C282.9,284.7,280.6,286.6,277.9,286.6"/>
	<path id="Fill-7_6_" class="st13" d="M296,286.3v-4.9c0-1-0.2-1.9-1.3-1.9c-1,0-1.5,0.9-1.5,2v4.9h-3v-5.1c0-1-0.4-1.7-1.3-1.7
		c-0.9,0-1.5,0.9-1.5,1.9v4.9h-3v-9h2.9v1.3h0c0.4-0.8,1.3-1.5,2.7-1.5c1.3,0,2.2,0.6,2.7,1.5c0.6-0.9,1.5-1.5,2.9-1.5
		c2.4,0,3.3,2,3.3,3.7v5.6H296z"/>
	<path id="Fill-9_6_" class="st13" d="M307.3,280.7c0-0.9-0.6-1.7-1.8-1.7c-1.1,0-2,0.8-2,1.7H307.3z M309.6,284.7
		c-0.9,1.2-2.3,1.9-4.1,1.9c-2.7,0-5-1.7-5-4.8c0-3,2.1-4.8,4.9-4.8c2.7,0,4.5,1.8,4.5,4.9c0,0.2,0,0.5,0,0.7h-6.5
		c0.1,1,1.1,1.7,2.2,1.7c0.9,0,1.5-0.4,2-0.9L309.6,284.7z"/>
	<path id="Fill-11_4_" class="st13" d="M344.8,279.9c-0.5-0.5-1.2-0.8-1.9-0.8c-0.6,0-1.1,0.2-1.1,0.7c0,0.5,0.5,0.7,1.7,0.9
		c1.4,0.3,2.9,1,2.9,2.8c0,2.3-2,3.1-3.9,3.1c-1.5,0-3-0.5-3.9-1.4l1.7-1.8c0.5,0.6,1.3,1,2.2,1c0.5,0,1.1-0.2,1.1-0.8
		c0-0.6-0.6-0.7-1.8-1c-1.3-0.3-2.6-0.9-2.6-2.6c0-2.2,2-3,3.8-3c1.3,0,2.7,0.4,3.6,1.3L344.8,279.9z"/>
	<polygon id="Fill-14_5_" class="st13" points="323.4,286.3 326.4,286.3 326.4,273 323.4,273 	"/>
	<path id="Fill-16_4_" class="st13" d="M316.8,279.4c1.4,0,2.1,1.1,2.1,2.3c0,1.2-0.7,2.3-2.1,2.3c-1.3,0-2.2-1.1-2.2-2.3
		C314.6,280.6,315.5,279.4,316.8,279.4L316.8,279.4z M314.7,290v-4.7h0c0.6,0.8,1.6,1.3,2.7,1.3c2.7,0,4.3-2.3,4.3-4.8
		c0-2.5-1.7-4.7-4.3-4.7c-1.3,0-2.3,0.6-2.9,1.4h-0.1v-1.1h-2.8V290H314.7z"/>
</g>
<g id="Group-24_3_" transform="translate(0.000000, 1.000000)">
	<path id="Fill-1_16_" class="st13" d="M357.2,282.3h2.3v2.4c-0.5,0.3-1.1,0.4-1.8,0.4c-2.3,0-3.4-1.7-3.4-4.2
		c0-2.5,1.1-4.2,3.4-4.2c1.4,0,2.5,0.5,3.5,1.1l0.4-2.8c-1.1-0.6-2.4-1-4-1c-4.1,0-6.6,2.8-6.6,6.9c0,4.1,2.3,6.8,6.5,6.8
		c1.8,0,3.4-0.5,4.8-1.4v-6.4h-5.5L357.2,282.3z"/>
	<path id="Fill-3_7_" class="st13" d="M369.1,279.3c-1.7-0.6-2-1-2-1.7c0-0.6,0.5-1,1.5-1c1,0,2.3,0.4,3.5,1.1l0.5-2.8
		c-1.2-0.6-2.3-0.9-4-0.9c-2.6,0-4.6,1.4-4.6,4c0,2.2,1.2,3.1,3.8,4.1c1.9,0.7,2.3,1.1,2.3,1.8c0,0.8-0.7,1.2-1.6,1.2
		c-1.3,0-2.9-0.5-4.2-1.2l-0.5,2.8c1.4,0.6,2.9,1,4.7,1c2.7,0,4.8-1.3,4.8-4.2C373.2,281.4,372.1,280.4,369.1,279.3"/>
	<polygon id="Fill-5_7_" class="st13" points="377.1,274 387.2,274 387.2,276.8 380.2,276.8 380.2,279.6 386.2,279.6 386.2,282.3 
		380.2,282.3 380.2,287.7 377.1,287.7 	"/>
	<path id="Fill-7_7_" class="st13" d="M387.6,278.7h2.1l0.4,1.6c0.6-1.3,1.4-1.8,2.6-1.8c0.2,0,0.5,0,0.7,0.1v3
		c-0.3,0-0.5-0.1-0.7-0.1c-1.1,0-1.8,0.5-2.1,1.5v4.8h-2.9V278.7z"/>
	<path id="Fill-9_7_" class="st13" d="M397.1,282.2h3.5c-0.2-1-0.8-1.4-1.7-1.4C397.9,280.8,397.3,281.3,397.1,282.2 M399.7,285.6
		c1.1,0,2-0.3,2.9-1v2.5c-1,0.6-2,0.9-3.3,0.9c-3.3,0-5.4-1.8-5.4-4.8c0-2.9,1.8-4.7,4.7-4.7c2.8,0,4.4,1.7,4.4,4.3
		c0,0.4,0,0.8-0.1,1.4h-6C397.4,285.1,398.3,285.6,399.7,285.6"/>
	<path id="Fill-11_5_" class="st13" d="M404.1,287.2v-2.5c0.9,0.6,2.1,1,3.5,1c1,0,1.4-0.2,1.4-0.6c0-0.4-0.3-0.5-1.1-0.7l-1.2-0.2
		c-1.9-0.3-2.6-1.3-2.6-2.7c0-2,1.4-3.1,4-3.1c1.2,0,2.4,0.2,3.1,0.7v2.4c-0.9-0.6-1.9-0.9-3.1-0.9c-0.9,0-1.2,0.2-1.2,0.6
		c0,0.4,0.3,0.5,1.1,0.6l1.2,0.2c1.7,0.3,2.6,1.2,2.6,2.8c0,2-1.4,3.1-4.2,3.1C406.2,288,404.9,287.7,404.1,287.2"/>
	<path id="Fill-13_3_" class="st13" d="M413.2,273h2.9v6.5c0.6-0.7,1.5-1.1,2.5-1.1c2,0,3,1.2,3,3.6v5.7h-2.9v-5.2
		c0-0.9-0.4-1.4-1.1-1.4c-0.7,0-1.2,0.4-1.5,1.1v5.5h-2.9V273z"/>
	<polygon id="Fill-15_3_" class="st13" points="425.9,274 427.1,274 432.9,283.4 438.8,274 440,274 440,287.7 438.8,287.7 
		438.8,276.2 433.3,285.1 432.6,285.1 427.1,276.2 427.1,287.7 425.9,287.7 	"/>
	<g id="Group-19_3_" transform="translate(90.267857, 5.611795)">
		<g id="Clip-18_3_">
		</g>
		<defs>
			<filter id="Adobe_OpacityMaskFilter_13_" filterUnits="userSpaceOnUse" x="351.2" y="273" width="7.7" height="9.4">
				<feColorMatrix  type="matrix" values="1 0 0 0 0  0 1 0 0 0  0 0 1 0 0  0 0 0 1 0"/>
			</filter>
		</defs>
		<mask maskUnits="userSpaceOnUse" x="351.2" y="273" width="7.7" height="9.4" id="mask-25_1_">
			<g class="st61">
				<polygon id="path-24_1_" class="st13" points="351.2,273 358.9,273 358.9,282.4 351.2,282.4 				"/>
			</g>
		</mask>
		<path id="Fill-17_3_" class="st62" d="M357.8,279.5v-1.1c-0.9-0.4-1.9-0.7-2.9-0.7c-1.6,0-2.5,0.6-2.5,1.8c0,1.1,0.8,1.8,2.2,1.8
			C355.9,281.3,356.9,280.7,357.8,279.5 M351.2,279.6c0-1.8,1.3-2.9,3.5-2.9c1,0,2.1,0.2,3.1,0.7v-0.6c0-1.9-0.9-2.8-2.7-2.8
			c-1.2,0-2.3,0.4-3.1,1.2v-1.2c0.8-0.7,1.9-1,3.2-1c2.4,0,3.7,1.2,3.7,3.7v5.5H358l-0.2-1.4c-0.9,1.1-2,1.7-3.4,1.7
			C352.4,282.4,351.2,281.3,351.2,279.6"/>
	</g>
	<g id="Clip-21_2_">
	</g>
	<defs>
		<filter id="Adobe_OpacityMaskFilter_14_" filterUnits="userSpaceOnUse" x="451.3" y="273" width="1.2" height="14.7">
			<feColorMatrix  type="matrix" values="1 0 0 0 0  0 1 0 0 0  0 0 1 0 0  0 0 0 1 0"/>
		</filter>
	</defs>
	<mask maskUnits="userSpaceOnUse" x="451.3" y="273" width="1.2" height="14.7" id="mask-27_1_">
		<g class="st63">
			<polygon id="path-26_1_" class="st13" points="351,288 459.1,288 459.1,273 351,273 			"/>
		</g>
	</mask>
	<polygon id="Fill-20_5_" class="st64" points="451.3,287.7 452.5,287.7 452.5,273 451.3,273 	"/>
	<defs>
		<filter id="Adobe_OpacityMaskFilter_15_" filterUnits="userSpaceOnUse" x="454.6" y="273" width="1.2" height="14.7">
			<feColorMatrix  type="matrix" values="1 0 0 0 0  0 1 0 0 0  0 0 1 0 0  0 0 0 1 0"/>
		</filter>
	</defs>
	<mask maskUnits="userSpaceOnUse" x="454.6" y="273" width="1.2" height="14.7" id="mask-27_2_">
		<g class="st65">
			<polygon id="path-26_2_" class="st13" points="351,288 459.1,288 459.1,273 351,273 			"/>
		</g>
	</mask>
	<polygon id="Fill-22_5_" class="st66" points="454.6,287.7 455.8,287.7 455.8,273 454.6,273 	"/>
	<defs>
		<filter id="Adobe_OpacityMaskFilter_16_" filterUnits="userSpaceOnUse" x="457.3" y="285.9" width="1.9" height="1.9">
			<feColorMatrix  type="matrix" values="1 0 0 0 0  0 1 0 0 0  0 0 1 0 0  0 0 0 1 0"/>
		</filter>
	</defs>
	<mask maskUnits="userSpaceOnUse" x="457.3" y="285.9" width="1.9" height="1.9" id="mask-27_3_">
		<g class="st67">
			<polygon id="path-26_3_" class="st13" points="351,288 459.1,288 459.1,273 351,273 			"/>
		</g>
	</mask>
	<path id="Fill-23_2_" class="st68" d="M457.3,286.8c0-0.5,0.4-0.9,0.9-0.9c0.5,0,0.9,0.4,0.9,0.9s-0.4,0.9-0.9,0.9
		C457.7,287.7,457.3,287.3,457.3,286.8"/>
</g>
<g id="hs_x2F_live_x2F_play_x5F_54" transform="translate(1.000000, 1.000000)">
	<g id="play">
		<path id="Oval-10" class="st69" d="M151,352c14.9,0,27-12.1,27-27s-12.1-27-27-27s-27,12.1-27,27S136.1,352,151,352z"/>
		<g id="play_28" transform="translate(21.000000, 17.000000)">
			<path id="Page-1_3_" class="st70" d="M125.8,298.3c-1-0.7-1.8-0.2-1.8,1.1v17.2c0,1.3,0.8,1.8,1.8,1.1l13.7-8.8
				c0,0,0.5-0.4,0.5-0.9c0-0.5-0.5-0.9-0.5-0.9L125.8,298.3z"/>
		</g>
	</g>
</g>
<path id="bg" class="st71" d="M229,294.5L229,294.5c6.4,0,11.5,5.1,11.5,11.5l0,0c0,6.4-5.1,11.5-11.5,11.5l0,0
	c-6.4,0-11.5-5.1-11.5-11.5l0,0C217.5,299.6,222.6,294.5,229,294.5z"/>
<path id="bg_1_" class="st72" d="M285,294.5L285,294.5c6.4,0,11.5,5.1,11.5,11.5l0,0c0,6.4-5.1,11.5-11.5,11.5l0,0
	c-6.4,0-11.5-5.1-11.5-11.5l0,0C273.5,299.6,278.6,294.5,285,294.5z"/>
<path id="Path-2" class="st18" d="M290.8,302.2c0.3-0.3,0.7-0.3,1,0c0.2,0.2,0.3,0.6,0.1,0.9l-0.1,0.1l-8.1,8
	c-0.2,0.2-0.6,0.3-0.9,0.1l-0.1-0.1l-4.6-4.5c-0.3-0.3-0.3-0.7,0-1c0.2-0.2,0.6-0.3,0.9-0.1l0.1,0.1l4.1,4.1L290.8,302.2z"/>
<path id="bg_2_" class="st73" d="M257,294.5L257,294.5c6.4,0,11.5,5.1,11.5,11.5l0,0c0,6.4-5.1,11.5-11.5,11.5l0,0
	c-6.4,0-11.5-5.1-11.5-11.5l0,0C245.5,299.6,250.6,294.5,257,294.5z"/>
<path id="Path-2_1_" class="st74" d="M262.8,302.2c0.3-0.3,0.7-0.3,1,0c0.2,0.2,0.3,0.6,0.1,0.9l-0.1,0.1l-8.1,8
	c-0.2,0.2-0.6,0.3-0.9,0.1l-0.1-0.1l-4.5-4.5c-0.3-0.3-0.3-0.7,0-1c0.2-0.2,0.6-0.3,0.9-0.1l0.1,0.1l4.1,4.1L262.8,302.2z"/>
<g id="Group-23_1_" transform="translate(0.200000, 0.150000)">
	<polygon id="Rectangle_15_" class="st18" points="304.1,294.7 332,322.6 330.6,324 302.6,296.1 	"/>
	<polygon id="Rectangle_16_" class="st18" points="332,296.1 304.1,324 302.6,322.6 330.6,294.7 	"/>
</g>
<path id="Rectangle_17_" class="st75" d="M189.5,434c0,6.5-2.6,12.4-6.9,16.6c-4.3,4.3-10.1,6.9-16.6,6.9s-12.4-2.6-16.6-6.9
	c-4.3-4.3-6.9-10.1-6.9-16.6s2.6-12.4,6.9-16.6c4.3-4.3,10.1-6.9,16.6-6.9s12.4,2.6,16.6,6.9C186.9,421.6,189.5,427.5,189.5,434z"/>
<polyline id="Path-3_7_" class="st76" points="167.8,441.6 160.8,433.8 167.8,426 "/>
<path id="Rectangle_18_" class="st75" d="M241.5,434c0,6.5-2.6,12.4-6.9,16.6c-4.3,4.3-10.1,6.9-16.6,6.9s-12.4-2.6-16.6-6.9
	c-4.3-4.3-6.9-10.1-6.9-16.6s2.6-12.4,6.9-16.6c4.3-4.3,10.1-6.9,16.6-6.9s12.4,2.6,16.6,6.9C238.9,421.6,241.5,427.5,241.5,434z"/>
<polyline id="Path-3_8_" class="st76" points="216.1,441.6 223.1,433.8 216.1,426 "/>
<g id="Group-12_9_" transform="translate(454.000000, 0.000000)">
	<path id="Rectangle_19_" class="st75" d="M-327.5,21c0,5.7-2.3,10.8-6,14.5c-3.7,3.7-8.8,6-14.5,6s-10.8-2.3-14.5-6
		c-3.7-3.7-6-8.8-6-14.5s2.3-10.8,6-14.5c3.7-3.7,8.8-6,14.5-6s10.8,2.3,14.5,6C-329.8,10.2-327.5,15.3-327.5,21z"/>
	<polyline id="Path-3_9_" class="st76" points="-346.4,27.6 -352.5,20.8 -346.4,14 	"/>
</g>
<g id="Group-12_10_" transform="translate(496.000000, 0.000000)">
	<path id="Rectangle_20_" class="st75" d="M-327.5,21c0,5.7-2.3,10.8-6,14.5c-3.7,3.7-8.8,6-14.5,6s-10.8-2.3-14.5-6
		c-3.7-3.7-6-8.8-6-14.5s2.3-10.8,6-14.5c3.7-3.7,8.8-6,14.5-6s10.8,2.3,14.5,6C-329.8,10.2-327.5,15.3-327.5,21z"/>
	<polyline id="Path-3_10_" class="st76" points="-349.7,27.6 -343.6,20.8 -349.7,14 	"/>
</g>
</svg>
